<svg version="1.1" xmlns="http://www.w3.org/2000/svg" xmlns:xlink="http://www.w3.org/1999/xlink" width="1036" height="444"><defs/><g><g transform="translate(-1519,-486) scale(1,1)"><rect fill="#C0C0C0" stroke="none" x="1536" y="503" width="406.4000000000001" height="15" opacity="0.2"/></g><g transform="translate(-1519,-486) scale(1,1)"><rect fill="#C0C0C0" stroke="none" x="1536" y="517" width="1016" height="410" opacity="0.2"/></g><g transform="translate(-1519,-486) scale(1,1)"><rect fill="#ffffd8" stroke="none" x="1529" y="511" width="1016" height="409"/></g><g transform="translate(-1519,-486) scale(1,1)"><path fill="none" stroke="#000000" d="M 1529 511 L 2545 511 L 2545 920 L 1529 920 L 1529 511 Z Z" stroke-miterlimit="10"/></g><g transform="translate(-1519,-486) scale(1,1)"><rect fill="#ffffd8" stroke="none" x="1529" y="496" width="406.4000000000001" height="15"/></g><g transform="translate(-1519,-486) scale(1,1)"><path fill="none" stroke="#000000" d="M 1529 496 L 1935.4 496 L 1935.4 511 L 1529 511 L 1529 496 Z Z" stroke-miterlimit="10"/></g><g transform="translate(-1519,-486) scale(1,1)"><rect fill="#ffffd8" stroke="none" x="1529" y="510" width="1016" height="410"/></g><g transform="translate(-1519,-486) scale(1,1)"><path fill="none" stroke="#000000" d="M 1529 510 L 2545 510 L 2545 920 L 1529 920 L 1529 510 Z Z" stroke-miterlimit="10"/></g><g transform="translate(-1519,-486) scale(1,1)"><g><path fill="none" stroke="none"/><text fill="#000000" stroke="none" font-family="Arial" font-size="13px" font-style="normal" font-weight="normal" text-decoration="none" x="1982.5" y="528.5">«cpp_namespace»</text></g></g><g transform="translate(-1519,-486) scale(1,1)"><g><path fill="none" stroke="none"/><text fill="#000000" stroke="none" font-family="Arial" font-size="13px" font-style="normal" font-weight="bold" text-decoration="none" x="1967.5" y="543.5">yarpWholeBodySensors</text></g></g></g></svg>