<svg version="1.1" xmlns="http://www.w3.org/2000/svg" xmlns:xlink="http://www.w3.org/1999/xlink" width="1176.4669189453125" height="248"><defs/><g><g transform="translate(-10,-10) scale(1,1)"><rect fill="#C0C0C0" stroke="none" x="146.573974609375" y="101.5" width="34.27001953125" height="24" opacity="0.2"/></g><g transform="translate(-10,-10) scale(1,1)"><rect fill="#ffffff" stroke="none" x="139.573974609375" y="94.5" width="34.27001953125" height="24"/></g><g transform="translate(-10,-10) scale(1,1)"><path fill="none" stroke="#000000" d="M 139.573974609375 94.5 L 173.843994140625 94.5 L 173.843994140625 118.5 L 139.573974609375 118.5 L 139.573974609375 94.5 Z Z" stroke-miterlimit="10"/></g><g transform="translate(-10,-10) scale(1,1)"><g><path fill="none" stroke="none"/><text fill="#000000" stroke="none" font-family="Helvetica" font-size="13px" font-style="normal" font-weight="bold" text-decoration="none" x="144.7880859375" y="114">BFL</text></g></g><g transform="translate(-10,-10) scale(1,1)"><rect fill="#C0C0C0" stroke="none" x="184.7869873046875" y="27" width="73.32080078125" height="37" opacity="0.2"/></g><g transform="translate(-10,-10) scale(1,1)"><rect fill="#ffffff" stroke="none" x="177.7869873046875" y="20" width="73.32080078125" height="37"/></g><g transform="translate(-10,-10) scale(1,1)"><path fill="none" stroke="#000000" d="M 177.7869873046875 20 L 251.1077880859375 20 L 251.1077880859375 57 L 177.7869873046875 57 L 177.7869873046875 20 Z Z" stroke-miterlimit="10"/></g><g transform="translate(-10,-10) scale(1,1)"><g><path fill="none" stroke="none"/><text fill="#000000" stroke="none" font-family="Helvetica" font-size="13px" font-style="normal" font-weight="normal" text-decoration="none" x="182.2869873046875" y="37.5">«template»</text></g></g><g transform="translate(-10,-10) scale(1,1)"><g><path fill="none" stroke="none"/><text fill="#000000" stroke="none" font-family="Helvetica" font-size="13px" font-style="italic" font-weight="bold" text-decoration="none" x="200.0032958984375" y="52.5">Filter</text></g></g><g transform="translate(-10,-10) scale(1,1)"><path fill="none" stroke="#000000" d="M 156 94 Q 157 73 181 58" stroke-miterlimit="10"/></g><g transform="translate(-10,-10) scale(1,1)"><path fill="#000000" stroke="none" d="M 174.6131089051926 66.95587081991863 L 181 58 L 170.15102900796654 59.81654298435691 L 162.34403731188806 69.65997668006996"/></g><g transform="translate(-10,-10) scale(1,1)"><path fill="none" stroke="#000000" d="M 174.6131089051926 66.95587081991863 L 181 58 L 170.15102900796654 59.81654298435691 L 162.34403731188806 69.65997668006996 L 174.6131089051926 66.95587081991863" stroke-miterlimit="10"/></g><g transform="translate(-10,-10) scale(1,1)"><rect fill="#C0C0C0" stroke="none" x="270.3662109375" y="101.5" width="87.74267578125" height="24" opacity="0.2"/></g><g transform="translate(-10,-10) scale(1,1)"><rect fill="#ffffff" stroke="none" x="263.3662109375" y="94.5" width="87.74267578125" height="24"/></g><g transform="translate(-10,-10) scale(1,1)"><path fill="none" stroke="#000000" d="M 263.3662109375 94.5 L 351.10888671875 94.5 L 351.10888671875 118.5 L 263.3662109375 118.5 L 263.3662109375 94.5 Z Z" stroke-miterlimit="10"/></g><g transform="translate(-10,-10) scale(1,1)"><g><path fill="none" stroke="none"/><text fill="#000000" stroke="none" font-family="Helvetica" font-size="13px" font-style="normal" font-weight="bold" text-decoration="none" x="270.75439453125" y="114">KalmanFilter</text></g></g><g transform="translate(-10,-10) scale(1,1)"><path fill="none" stroke="#000000" d="M 307 94 Q 308 73 252 52" stroke-miterlimit="10"/></g><g transform="translate(-10,-10) scale(1,1)"><path fill="#FFFFFF" stroke="none" d="M 273.9873387065212 51.25371814660014 L 252 52 L 268.0750972588421 67.0196953404111"/></g><g transform="translate(-10,-10) scale(1,1)"><path fill="none" stroke="#000000" d="M 273.9873387065212 51.25371814660014 L 252 52 L 268.0750972588421 67.0196953404111 L 273.9873387065212 51.25371814660014" stroke-miterlimit="10"/></g><g transform="translate(-10,-10) scale(1,1)"><rect fill="#C0C0C0" stroke="none" x="241.10986328125" y="169.5" width="146.25537109375" height="24" opacity="0.2"/></g><g transform="translate(-10,-10) scale(1,1)"><rect fill="#ffffff" stroke="none" x="234.10986328125" y="162.5" width="146.25537109375" height="24"/></g><g transform="translate(-10,-10) scale(1,1)"><path fill="none" stroke="#000000" d="M 234.10986328125 162.5 L 380.365234375 162.5 L 380.365234375 186.5 L 234.10986328125 186.5 L 234.10986328125 162.5 Z Z" stroke-miterlimit="10"/></g><g transform="translate(-10,-10) scale(1,1)"><g><path fill="none" stroke="none"/><text fill="#000000" stroke="none" font-family="Helvetica" font-size="13px" font-style="normal" font-weight="bold" text-decoration="none" x="243.2880859375" y="182">ExtendedKalmanFilter</text></g></g><g transform="translate(-10,-10) scale(1,1)"><path fill="none" stroke="#000000" d="M 307 162 Q 308 141 307 120" stroke-miterlimit="10"/></g><g transform="translate(-10,-10) scale(1,1)"><path fill="#FFFFFF" stroke="none" d="M 316.37628461946633 139.90189153660424 L 307 120 L 299.55727197278776 140.70279690073178"/></g><g transform="translate(-10,-10) scale(1,1)"><path fill="none" stroke="#000000" d="M 316.37628461946633 139.90189153660424 L 307 120 L 299.55727197278776 140.70279690073178 L 316.37628461946633 139.90189153660424" stroke-miterlimit="10"/></g><g transform="translate(-10,-10) scale(1,1)"><rect fill="#C0C0C0" stroke="none" x="389.10888671875" y="101.5" width="310.97705078125" height="24" opacity="0.2"/></g><g transform="translate(-10,-10) scale(1,1)"><rect fill="#ffffff" stroke="none" x="382.10888671875" y="94.5" width="310.97705078125" height="24"/></g><g transform="translate(-10,-10) scale(1,1)"><path fill="none" stroke="#000000" d="M 382.10888671875 94.5 L 693.0859375 94.5 L 693.0859375 118.5 L 382.10888671875 118.5 L 382.10888671875 94.5 Z Z" stroke-miterlimit="10"/></g><g transform="translate(-10,-10) scale(1,1)"><g><path fill="none" stroke="none"/><text fill="#000000" stroke="none" font-family="Helvetica" font-size="13px" font-style="normal" font-weight="bold" text-decoration="none" x="397.060302734375" y="114">AnalyticMeasurementModelGaussianUncertainty</text></g></g><g transform="translate(-10,-10) scale(1,1)"><rect fill="#C0C0C0" stroke="none" x="27" y="231" width="273.41796875" height="24" opacity="0.2"/></g><g transform="translate(-10,-10) scale(1,1)"><rect fill="#ffffff" stroke="none" x="20" y="224" width="273.41796875" height="24"/></g><g transform="translate(-10,-10) scale(1,1)"><path fill="none" stroke="#000000" d="M 20 224 L 293.41796875 224 L 293.41796875 248 L 20 248 L 20 224 Z Z" stroke-miterlimit="10"/></g><g transform="translate(-10,-10) scale(1,1)"><g><path fill="none" stroke="none"/><text fill="#000000" stroke="none" font-family="Helvetica" font-size="13px" font-style="normal" font-weight="bold" text-decoration="none" x="34.240478515625" y="243.5">AnalyticSystemModelGaussianUncertainty</text></g></g><g transform="translate(-10,-10) scale(1,1)"><rect fill="#C0C0C0" stroke="none" x="117.30810546875" y="163" width="92.8017578125" height="37" opacity="0.2"/></g><g transform="translate(-10,-10) scale(1,1)"><rect fill="#ffffff" stroke="none" x="110.30810546875" y="156" width="92.8017578125" height="37"/></g><g transform="translate(-10,-10) scale(1,1)"><path fill="none" stroke="#000000" d="M 110.30810546875 156 L 203.10986328125 156 L 203.10986328125 193 L 110.30810546875 193 L 110.30810546875 156 Z Z" stroke-miterlimit="10"/></g><g transform="translate(-10,-10) scale(1,1)"><g><path fill="none" stroke="none"/><text fill="#000000" stroke="none" font-family="Helvetica" font-size="13px" font-style="normal" font-weight="normal" text-decoration="none" x="124.548583984375" y="173.5">«template»</text></g></g><g transform="translate(-10,-10) scale(1,1)"><g><path fill="none" stroke="none"/><text fill="#000000" stroke="none" font-family="Helvetica" font-size="13px" font-style="italic" font-weight="bold" text-decoration="none" x="117.33447265625" y="188.5">SystemModel</text></g></g><g transform="translate(-10,-10) scale(1,1)"><path fill="none" stroke="#000000" d="M 162 120 Q 172 141 165 155" stroke-miterlimit="10"/></g><g transform="translate(-10,-10) scale(1,1)"><path fill="#000000" stroke="none" d="M 165.77977922099748 144.02767370306094 L 165 155 L 173.30999350495276 147.79278084503858 L 174.83869910099907 135.32260179800184"/></g><g transform="translate(-10,-10) scale(1,1)"><path fill="none" stroke="#000000" d="M 165.77977922099748 144.02767370306094 L 165 155 L 173.30999350495276 147.79278084503858 L 174.83869910099907 135.32260179800184 L 165.77977922099748 144.02767370306094" stroke-miterlimit="10"/></g><g transform="translate(-10,-10) scale(1,1)"><path fill="none" stroke="#000000" d="M 156 223 Q 157 209 157 194" stroke-miterlimit="10"/></g><g transform="translate(-10,-10) scale(1,1)"><path fill="#FFFFFF" stroke="none" d="M 165.41903551203197 214.3253497152483 L 157 194 L 148.58096448796803 214.3253497152483"/></g><g transform="translate(-10,-10) scale(1,1)"><path fill="none" stroke="#000000" d="M 165.41903551203197 214.3253497152483 L 157 194 L 148.58096448796803 214.3253497152483 L 165.41903551203197 214.3253497152483" stroke-miterlimit="10"/></g><g transform="translate(-10,-10) scale(1,1)"><path fill="none" stroke="#000000" d="M 148 155 Q 142 141 151 120" stroke-miterlimit="10"/></g><g transform="translate(-10,-10) scale(1,1)"><path fill="#000000" stroke="none" d="M 150.8658835726114 130.9991823688811 L 151 120 L 143.1275689241817 127.68276180526834 L 142.33377543125832 140.22119066039727"/></g><g transform="translate(-10,-10) scale(1,1)"><path fill="none" stroke="#000000" d="M 150.8658835726114 130.9991823688811 L 151 120 L 143.1275689241817 127.68276180526834 L 142.33377543125832 140.22119066039727 L 150.8658835726114 130.9991823688811" stroke-miterlimit="10"/></g><g transform="translate(-10,-10) scale(1,1)"><rect fill="#C0C0C0" stroke="none" x="379.237060546875" y="27" width="130.36083984375" height="37" opacity="0.2"/></g><g transform="translate(-10,-10) scale(1,1)"><rect fill="#ffffff" stroke="none" x="372.237060546875" y="20" width="130.36083984375" height="37"/></g><g transform="translate(-10,-10) scale(1,1)"><path fill="none" stroke="#000000" d="M 372.237060546875 20 L 502.597900390625 20 L 502.597900390625 57 L 372.237060546875 57 L 372.237060546875 20 Z Z" stroke-miterlimit="10"/></g><g transform="translate(-10,-10) scale(1,1)"><g><path fill="none" stroke="none"/><text fill="#000000" stroke="none" font-family="Helvetica" font-size="13px" font-style="normal" font-weight="normal" text-decoration="none" x="405.257080078125" y="37.5">«template»</text></g></g><g transform="translate(-10,-10) scale(1,1)"><g><path fill="none" stroke="none"/><text fill="#000000" stroke="none" font-family="Helvetica" font-size="13px" font-style="italic" font-weight="bold" text-decoration="none" x="379.974365234375" y="52.5">MeasurementModel</text></g></g><g transform="translate(-10,-10) scale(1,1)"><path fill="none" stroke="#000000" d="M 175 103 Q 395 73 413 58" stroke-miterlimit="10"/></g><g transform="translate(-10,-10) scale(1,1)"><path fill="#000000" stroke="none" d="M 407.88768451425597 67.7398270197279 L 413 58 L 402.49794931923185 61.27214478569895 L 396.0991318488577 72.08405679261855"/></g><g transform="translate(-10,-10) scale(1,1)"><path fill="none" stroke="#000000" d="M 407.88768451425597 67.7398270197279 L 413 58 L 402.49794931923185 61.27214478569895 L 396.0991318488577 72.08405679261855 L 407.88768451425597 67.7398270197279" stroke-miterlimit="10"/></g><g transform="translate(-10,-10) scale(1,1)"><path fill="none" stroke="#000000" d="M 537 94 Q 538 73 495 58" stroke-miterlimit="10"/></g><g transform="translate(-10,-10) scale(1,1)"><path fill="#FFFFFF" stroke="none" d="M 516.9641947698046 56.74534940557574 L 495 58 L 511.41820300836804 72.6438591216938"/></g><g transform="translate(-10,-10) scale(1,1)"><path fill="none" stroke="#000000" d="M 516.9641947698046 56.74534940557574 L 495 58 L 511.41820300836804 72.6438591216938 L 516.9641947698046 56.74534940557574" stroke-miterlimit="10"/></g><g transform="translate(-10,-10) scale(1,1)"><rect fill="#C0C0C0" stroke="none" x="643.666015625" y="231" width="276.26806640625" height="24" opacity="0.2"/></g><g transform="translate(-10,-10) scale(1,1)"><rect fill="#ffffff" stroke="none" x="636.666015625" y="224" width="276.26806640625" height="24"/></g><g transform="translate(-10,-10) scale(1,1)"><path fill="none" stroke="#000000" d="M 636.666015625 224 L 912.93408203125 224 L 912.93408203125 248 L 636.666015625 248 L 636.666015625 224 Z Z" stroke-miterlimit="10"/></g><g transform="translate(-10,-10) scale(1,1)"><g><path fill="none" stroke="none"/><text fill="#000000" stroke="none" font-family="Helvetica" font-size="13px" font-style="normal" font-weight="bold" text-decoration="none" x="652.315673828125" y="243.5">AnalyticConditionalGaussianAdditiveNoise</text></g></g><g transform="translate(-10,-10) scale(1,1)"><rect fill="#C0C0C0" stroke="none" x="712.293701171875" y="169.5" width="139.0126953125" height="24" opacity="0.2"/></g><g transform="translate(-10,-10) scale(1,1)"><rect fill="#ffffff" stroke="none" x="705.293701171875" y="162.5" width="139.0126953125" height="24"/></g><g transform="translate(-10,-10) scale(1,1)"><path fill="none" stroke="#000000" d="M 705.293701171875 162.5 L 844.306396484375 162.5 L 844.306396484375 186.5 L 705.293701171875 186.5 L 705.293701171875 162.5 Z Z" stroke-miterlimit="10"/></g><g transform="translate(-10,-10) scale(1,1)"><g><path fill="none" stroke="none"/><text fill="#000000" stroke="none" font-family="Helvetica" font-size="13px" font-style="normal" font-weight="bold" text-decoration="none" x="714.81787109375" y="182">ConditionalGaussian</text></g></g><g transform="translate(-10,-10) scale(1,1)"><path fill="none" stroke="#000000" d="M 774 223 Q 775 209 774 188" stroke-miterlimit="10"/></g><g transform="translate(-10,-10) scale(1,1)"><path fill="#FFFFFF" stroke="none" d="M 783.3762846194663 207.90189153660424 L 774 188 L 766.5572719727878 208.70279690073178"/></g><g transform="translate(-10,-10) scale(1,1)"><path fill="none" stroke="#000000" d="M 783.3762846194663 207.90189153660424 L 774 188 L 766.5572719727878 208.70279690073178 L 783.3762846194663 207.90189153660424" stroke-miterlimit="10"/></g><g transform="translate(-10,-10) scale(1,1)"><rect fill="#C0C0C0" stroke="none" x="731.0859375" y="95" width="101.42822265625" height="37" opacity="0.2"/></g><g transform="translate(-10,-10) scale(1,1)"><rect fill="#ffffff" stroke="none" x="724.0859375" y="88" width="101.42822265625" height="37"/></g><g transform="translate(-10,-10) scale(1,1)"><path fill="none" stroke="#000000" d="M 724.0859375 88 L 825.51416015625 88 L 825.51416015625 125 L 724.0859375 125 L 724.0859375 88 Z Z" stroke-miterlimit="10"/></g><g transform="translate(-10,-10) scale(1,1)"><g><path fill="none" stroke="none"/><text fill="#000000" stroke="none" font-family="Helvetica" font-size="13px" font-style="normal" font-weight="normal" text-decoration="none" x="742.6396484375" y="105.5">«template»</text></g></g><g transform="translate(-10,-10) scale(1,1)"><g><path fill="none" stroke="none"/><text fill="#000000" stroke="none" font-family="Helvetica" font-size="13px" font-style="italic" font-weight="bold" text-decoration="none" x="732.521484375" y="120.5">ConditionalPdf</text></g></g><g transform="translate(-10,-10) scale(1,1)"><path fill="none" stroke="#000000" d="M 774 162 Q 775 141 775 126" stroke-miterlimit="10"/></g><g transform="translate(-10,-10) scale(1,1)"><path fill="#FFFFFF" stroke="none" d="M 783.419035512032 146.3253497152483 L 775 126 L 766.580964487968 146.3253497152483"/></g><g transform="translate(-10,-10) scale(1,1)"><path fill="none" stroke="#000000" d="M 783.419035512032 146.3253497152483 L 775 126 L 766.580964487968 146.3253497152483 L 783.419035512032 146.3253497152483" stroke-miterlimit="10"/></g><g transform="translate(-10,-10) scale(1,1)"><rect fill="#C0C0C0" stroke="none" x="802.8780517578125" y="27" width="73.32080078125" height="37" opacity="0.2"/></g><g transform="translate(-10,-10) scale(1,1)"><rect fill="#ffffff" stroke="none" x="795.8780517578125" y="20" width="73.32080078125" height="37"/></g><g transform="translate(-10,-10) scale(1,1)"><path fill="none" stroke="#000000" d="M 795.8780517578125 20 L 869.1988525390625 20 L 869.1988525390625 57 L 795.8780517578125 57 L 795.8780517578125 20 Z Z" stroke-miterlimit="10"/></g><g transform="translate(-10,-10) scale(1,1)"><g><path fill="none" stroke="none"/><text fill="#000000" stroke="none" font-family="Helvetica" font-size="13px" font-style="normal" font-weight="normal" text-decoration="none" x="800.3780517578125" y="37.5">«template»</text></g></g><g transform="translate(-10,-10) scale(1,1)"><g><path fill="none" stroke="none"/><text fill="#000000" stroke="none" font-family="Helvetica" font-size="13px" font-style="italic" font-weight="bold" text-decoration="none" x="822.7821044921875" y="52.5">Pdf</text></g></g><g transform="translate(-10,-10) scale(1,1)"><path fill="none" stroke="#000000" d="M 775 87 Q 775 73 799 58" stroke-miterlimit="10"/></g><g transform="translate(-10,-10) scale(1,1)"><path fill="#FFFFFF" stroke="none" d="M 786.2262178103853 75.91174163983726 L 799 58 L 777.3020580159331 61.63308596871382"/></g><g transform="translate(-10,-10) scale(1,1)"><path fill="none" stroke="#000000" d="M 786.2262178103853 75.91174163983726 L 799 58 L 777.3020580159331 61.63308596871382 L 786.2262178103853 75.91174163983726" stroke-miterlimit="10"/></g><g transform="translate(-10,-10) scale(1,1)"><rect fill="#C0C0C0" stroke="none" x="907.1988525390625" y="33.5" width="276.26806640625" height="24" opacity="0.2"/></g><g transform="translate(-10,-10) scale(1,1)"><rect fill="#ffffff" stroke="none" x="900.1988525390625" y="26.5" width="276.26806640625" height="24"/></g><g transform="translate(-10,-10) scale(1,1)"><path fill="none" stroke="#000000" d="M 900.1988525390625 26.5 L 1176.4669189453125 26.5 L 1176.4669189453125 50.5 L 900.1988525390625 50.5 L 900.1988525390625 26.5 Z Z" stroke-miterlimit="10"/></g><g transform="translate(-10,-10) scale(1,1)"><g><path fill="none" stroke="none"/><text fill="#000000" stroke="none" font-family="Helvetica" font-size="13px" font-style="normal" font-weight="bold" text-decoration="none" x="915.8485107421875" y="46">AnalyticConditionalGaussianAdditiveNoise</text></g></g><g transform="translate(-10,-10) scale(1,1)"><rect fill="#C0C0C0" stroke="none" x="863.51416015625" y="101.5" width="67.525390625" height="24" opacity="0.2"/></g><g transform="translate(-10,-10) scale(1,1)"><rect fill="#ffffff" stroke="none" x="856.51416015625" y="94.5" width="67.525390625" height="24"/></g><g transform="translate(-10,-10) scale(1,1)"><path fill="none" stroke="#000000" d="M 856.51416015625 94.5 L 924.03955078125 94.5 L 924.03955078125 118.5 L 856.51416015625 118.5 L 856.51416015625 94.5 Z Z" stroke-miterlimit="10"/></g><g transform="translate(-10,-10) scale(1,1)"><g><path fill="none" stroke="none"/><text fill="#000000" stroke="none" font-family="Helvetica" font-size="13px" font-style="normal" font-weight="bold" text-decoration="none" x="862.81689453125" y="114">Gaussian</text></g></g><g transform="translate(-10,-10) scale(1,1)"><path fill="none" stroke="#000000" d="M 890 94 Q 891 73 866 58" stroke-miterlimit="10"/></g><g transform="translate(-10,-10) scale(1,1)"><path fill="#FFFFFF" stroke="none" d="M 887.760401629193 61.238042763185234 L 866 58 L 879.0972855577248 75.67656954896545"/></g><g transform="translate(-10,-10) scale(1,1)"><path fill="none" stroke="#000000" d="M 887.760401629193 61.238042763185234 L 866 58 L 879.0972855577248 75.67656954896545 L 887.760401629193 61.238042763185234" stroke-miterlimit="10"/></g></g></svg>