<?xml version="1.0" encoding="UTF-8" standalone="no"?>
<!-- Created with Inkscape (http://www.inkscape.org/) -->

<svg
   xmlns:dc="http://purl.org/dc/elements/1.1/"
   xmlns:cc="http://creativecommons.org/ns#"
   xmlns:rdf="http://www.w3.org/1999/02/22-rdf-syntax-ns#"
   xmlns:svg="http://www.w3.org/2000/svg"
   xmlns="http://www.w3.org/2000/svg"
   xmlns:xlink="http://www.w3.org/1999/xlink"
   xmlns:sodipodi="http://sodipodi.sourceforge.net/DTD/sodipodi-0.dtd"
   xmlns:inkscape="http://www.inkscape.org/namespaces/inkscape"
   id="svg7560"
   version="1.1"
   inkscape:version="0.48.4 r9939"
   width="450"
   height="450"
   sodipodi:docname="Dynamics.svg"
   inkscape:export-filename="/home/jorhabib/Software/codyco/src/simulink/controllers/newImgs/src/Dynamics.png"
   inkscape:export-xdpi="100"
   inkscape:export-ydpi="100">
  <metadata
     id="metadata7566">
    <rdf:RDF>
      <cc:Work
         rdf:about="">
        <dc:format>image/svg+xml</dc:format>
        <dc:type
           rdf:resource="http://purl.org/dc/dcmitype/StillImage" />
        <dc:title />
      </cc:Work>
    </rdf:RDF>
  </metadata>
  <defs
     id="defs7564">
    <linearGradient
       id="linearGradient3760">
      <stop
         style="stop-color:#000000;stop-opacity:1;"
         offset="0"
         id="stop3762" />
      <stop
         style="stop-color:#000000;stop-opacity:0;"
         offset="1"
         id="stop3764" />
    </linearGradient>
    <radialGradient
       inkscape:collect="always"
       xlink:href="#linearGradient3760"
       id="radialGradient3766"
       cx="225.06915"
       cy="225.28885"
       fx="225.06915"
       fy="225.28885"
       r="224.79018"
       gradientTransform="matrix(1,0,0,1.0042735,0,-0.96276337)"
       gradientUnits="userSpaceOnUse" />
    <radialGradient
       inkscape:collect="always"
       xlink:href="#linearGradient3859"
       id="radialGradient3865"
       cx="225.96065"
       cy="226.92126"
       fx="225.96065"
       fy="226.92126"
       r="225"
       gradientUnits="userSpaceOnUse"
       gradientTransform="translate(0,-2)" />
    <linearGradient
       id="linearGradient3859">
      <stop
         style="stop-color:#ffe169;stop-opacity:0.39215687;"
         offset="0"
         id="stop3861" />
      <stop
         style="stop-color:#ffcf0f;stop-opacity:1;"
         offset="1"
         id="stop3863" />
    </linearGradient>
    <radialGradient
       r="225"
       fy="226.92126"
       fx="225.96065"
       cy="226.92126"
       cx="225.96065"
       gradientTransform="translate(0.4376619,-1.5144849)"
       gradientUnits="userSpaceOnUse"
       id="radialGradient3035"
       xlink:href="#linearGradient3859"
       inkscape:collect="always" />
    <radialGradient
       r="225"
       fy="226.92126"
       fx="225.96065"
       cy="226.92126"
       cx="225.96065"
       gradientTransform="translate(0.4376619,-1.5144849)"
       gradientUnits="userSpaceOnUse"
       id="radialGradient3035-3"
       xlink:href="#linearGradient3859-2"
       inkscape:collect="always" />
    <linearGradient
       id="linearGradient3859-2">
      <stop
         style="stop-color:#ffe169;stop-opacity:0.39215687;"
         offset="0"
         id="stop3861-2" />
      <stop
         style="stop-color:#ffcf0f;stop-opacity:1;"
         offset="1"
         id="stop3863-8" />
    </linearGradient>
  </defs>
  <sodipodi:namedview
     pagecolor="#ffffff"
     bordercolor="#666666"
     borderopacity="1"
     objecttolerance="10"
     gridtolerance="10"
     guidetolerance="10"
     inkscape:pageopacity="0"
     inkscape:pageshadow="2"
     inkscape:window-width="1366"
     inkscape:window-height="744"
     id="namedview7562"
     showgrid="false"
     inkscape:zoom="0.86131388"
     inkscape:cx="79.409239"
     inkscape:cy="242.50086"
     inkscape:window-x="0"
     inkscape:window-y="24"
     inkscape:window-maximized="1"
     inkscape:current-layer="layer3"
     showguides="true"
     inkscape:guide-bbox="true"
     fit-margin-top="0"
     fit-margin-left="0"
     fit-margin-right="0"
     fit-margin-bottom="0">
    <sodipodi:guide
       orientation="0,1"
       position="298.14406,429.98305"
       id="guide7745" />
    <sodipodi:guide
       orientation="1,0"
       position="18.338975,116.50847"
       id="guide7747" />
    <sodipodi:guide
       orientation="1,0"
       position="428.17796,190.81356"
       id="guide7749" />
    <sodipodi:guide
       orientation="0,1"
       position="373.61016,16.661016"
       id="guide7751" />
  </sodipodi:namedview>
  <g
     inkscape:groupmode="layer"
     id="layer3"
     inkscape:label="backrgound"
     style="display:inline"
     transform="translate(-1.3983127,-0.40677929)">
    <rect
       style="fill:#ffffff;fill-opacity:1;stroke:none;display:inline"
       id="rect7809-3-6"
       width="450"
       height="450"
       x="1.3983127"
       y="0.40677929" />
    <rect
       style="fill:url(#radialGradient3035);fill-opacity:1;stroke:none;display:inline"
       id="rect7809-3"
       width="450"
       height="450"
       x="1.3983127"
       y="0.40677929" />
  </g>
  <path
     style="fill:#000000"
     d="m 333.34435,431.9024 c -3.84509,-0.69525 -4.42132,-1.78905 -4.86594,-9.23659 -0.51098,-8.55907 -1.86569,-10.99638 -6.83321,-12.29386 -2.05904,-0.53782 -5.07575,-1.53691 -6.70377,-2.22019 l -2.96005,-1.24237 1.86607,-7.16397 1.86606,-7.16396 -2.05147,-1.63374 c -2.23774,-1.78209 -4.24676,-2.10271 -5.06061,-0.80762 -0.71521,1.13814 -20.21925,-6.74007 -39.45481,-15.93689 -9.65052,-4.61407 -17.81955,-7.91428 -20.5905,-8.31833 -5.97565,-0.87145 -14.37872,-5.92025 -17.70123,-10.63541 -2.54051,-3.60543 -2.58647,-3.87832 -1.47549,-8.76074 0.63069,-2.77165 1.53767,-5.03937 2.01552,-5.03937 0.47783,0 0.86879,-0.36401 0.86879,-0.80889 0,-0.45277 -1.87056,-0.41653 -4.24888,0.0825 -3.07576,0.64517 -4.61815,0.58986 -5.5863,-0.20035 -1.93023,-1.57551 -13.87005,-19.0438 -16.35368,-23.92587 -1.15895,-2.27817 -2.63997,-4.76343 -3.29117,-5.52283 -0.65117,-0.7594 -2.57062,-4.0731 -4.26539,-7.36379 -1.69479,-3.2907 -3.16664,-6.10438 -3.27077,-6.25264 -0.20627,-0.29373 -4.78594,1.56522 -12.12021,4.91969 -12.24617,5.60106 -14.11273,6.15192 -22.46239,6.62906 -7.17716,0.41013 -9.46189,0.97321 -15.44286,3.80581 -8.5096,4.03018 -9.04456,5.59852 -4.84388,14.2006 1.76363,3.61151 3.5209,9.73017 4.8071,16.73805 2.80457,15.28046 4.69698,25.08372 5.7202,29.63263 0.47746,2.12266 0.86811,5.04652 0.86811,6.49748 0,2.9789 2.03087,6.21165 3.90227,6.21165 0.78268,0 1.41919,1.53883 1.71332,4.14213 0.32353,2.8637 0.90125,4.14212 1.87187,4.14212 1.15284,0 1.44603,1.89285 1.63959,10.58545 0.12962,5.82198 -0.17238,11.20675 -0.67118,11.96615 -0.77447,1.17912 -4.97678,1.37036 -28.78162,1.30986 -31.41609,-0.08 -37.193683,-0.79551 -38.741153,-4.79847 -1.434781,-3.71141 -0.168494,-7.46002 2.751559,-8.14543 1.374581,-0.32265 2.920421,-0.82804 3.435191,-1.12311 0.51476,-0.29504 1.778273,-0.66056 2.807793,-0.81227 2.2338,-0.32914 8.69784,-3.35443 10.99721,-5.1469 1.24106,-0.96748 1.63787,-2.64597 1.63787,-6.92828 l 0,-5.65152 2.90794,0 c 1.9637,0 2.74881,-0.37359 2.41792,-1.1506 -0.26948,-0.63281 -2.24067,-5.22675 -4.38039,-10.20872 -4.59093,-10.68915 -8.57899,-21.26311 -11.8589,-31.44269 -3.501543,-10.86735 -4.130673,-12.31698 -7.3552,-16.94706 -5.813923,-8.34816 -8.074758,-21.11754 -4.381903,-24.74941 2.02176,-1.98834 17.979363,-7.65809 25.418313,-9.03114 0.75014,-0.13843 2.4348,-0.77983 3.74373,-1.42529 1.30893,-0.64544 2.48963,-1.22621 2.62381,-1.29055 0.13414,-0.0643 -0.32808,-1.73493 -1.02726,-3.7124 -3.04283,-8.60571 -3.12297,-8.3087 3.33657,-12.36911 l 5.8701,-3.6899 -4.21169,0.61244 c -2.31642,0.33685 -5.18674,0.96654 -6.37846,1.39935 -3.89387,1.41413 -5.39421,0.88536 -7.02378,-2.47543 -2.47111,-5.09639 -3.33617,-10.00726 -2.14508,-12.17764 0.5722,-1.04269 4.73459,-6.26246 9.24974,-11.5995 6.58603,-7.78495 8.8994,-9.89223 11.69915,-10.65692 4.91863,-1.34346 5.62289,-1.22975 6.8594,1.10758 0.60259,1.13909 1.20133,2.19662 1.33052,2.35005 0.12919,0.15342 1.86209,-1.23018 3.8509,-3.0747 1.98886,-1.84452 6.76579,-5.68074 10.61548,-8.52492 l 6.99941,-5.17126 11.85735,-1.07481 c 8.65243,-0.78431 12.45663,-1.51938 14.07447,-2.71955 l 2.21713,-1.64477 -2.35523,-4.66873 c -1.29538,-2.56779 -3.40817,-7.24635 -4.69507,-10.39678 -1.2869,-3.15044 -2.72367,-5.84904 -3.19281,-5.9969 -0.46912,-0.14782 -2.50703,2.11293 -4.52865,5.02393 -2.02161,2.91099 -4.06994,5.29271 -4.5518,5.29271 -0.48188,0 -1.27959,-0.93198 -1.77271,-2.07105 -0.49312,-1.1391 -1.85151,-3.56634 -3.01861,-5.39392 -1.16713,-1.82755 -3.32027,-5.24481 -4.78478,-7.59389 -1.46451,-2.34909 -3.04122,-4.27106 -3.5038,-4.27106 -0.4626,0 -4.10781,2.81606 -8.10047,6.25791 -9.03518,7.78866 -11.38757,9.3907 -13.78522,9.38794 -2.1346,-0.003 -11.62501,-6.05538 -16.01401,-10.21363 l -2.88524,-2.73352 -1.69009,3.68598 c -2.17504,4.74371 -4.58322,6.86871 -7.06168,6.23131 -1.40893,-0.36238 -2.75529,0.37056 -4.8608,2.64614 -1.74965,1.89097 -3.79711,3.14732 -5.129133,3.14732 -3.04213,0 -23.194027,-13.47874 -28.385416,-18.98578 -4.954861,-5.25611 -7.47,-8.92519 -7.47,-10.8972 0,-1.92704 -1.141724,-1.77392 -3.041189,0.40786 -1.065757,1.22415 -2.134154,1.60125 -3.259861,1.15058 -2.582912,-1.03399 -20.840961,-16.11191 -20.840961,-17.21092 0,-0.53513 1.488292,-3.14644 3.307302,-5.80291 2.682904,-3.91806 3.698923,-4.74281 5.381606,-4.36841 2.021647,0.44983 11.413127,2.06413 17.049208,2.93059 12.730147,1.95706 14.125004,2.6873 11.201589,5.86425 -1.325563,1.44053 -0.990806,1.64145 4.445671,2.66837 3.233545,0.6108 8.827358,2.20856 12.430686,3.55057 5.585907,2.08038 7.250475,3.25795 11.293748,7.98956 5.08873,5.95502 11.88344,11.5326 14.04918,11.5326 0.75918,0 1.33115,-0.89599 1.33115,-2.08531 0,-1.31741 2.05428,-4.1138 5.57864,-7.5939 3.25812,-3.21718 5.83834,-6.65726 6.2029,-8.27 0.34333,-1.5188 1.82615,-4.11322 3.29518,-5.7654 1.46903,-1.65217 3.27044,-4.13745 4.00311,-5.52283 0.73269,-1.38538 3.04704,-3.76151 5.14302,-5.2803 2.66002,-1.92752 3.82026,-3.45635 3.84211,-5.06261 0.0642,-4.71866 4.29066,-11.54927 9.73288,-15.7295 4.06373,-3.12137 4.21717,-3.7032 5.15896,-5.37953 1.15253,-2.05148 1.78486,-2.56665 2.17793,-4.19543 0.15658,-0.64899 0.0964,-2.60862 -2.21535,-1.78161 -1.65737,0.59291 -2.96879,1.31449 -3.11608,1.15059 -0.68708,-0.76451 -5.17386,-11.0443 -5.17386,-11.85396 0,-0.50381 0.24496,-0.89573 1.62786,-1.37558 1.18794,-0.41223 1.55031,-0.91367 0.75678,-1.69407 -0.79352,-0.78043 -1.7768,0.3399 -8.40094,6.64232 -7.82407,7.44404 -9.27087,8.44352 -12.2224,8.44352 -4.85822,0 -9.50545,-2.21804 -11.13316,-5.31368 -0.78004,-1.48351 -2.96392,-4.03199 -4.85306,-5.66328 -3.54485,-3.06101 -3.72696,-4.13481 -1.80712,-10.654135 0.35372,-1.20114 -0.60189,-3.60044 -2.74959,-6.90355 -6.93655,-10.668203 -8.36355,-14.523132 -8.78545,-23.733085 -0.37008,-8.078978 -0.23339,-8.861022 2.50496,-14.331523 3.25897,-6.510563 6.78169,-10.399022 14.96795,-16.52189 5.94083,-4.443407 19.19876,-10.346101 20.46485,-10.818944 1.07896,-0.402963 2.84183,-1.033513 3.68865,-1.315834 0.97622,-0.325476 1.89145,-0.463653 2.93488,-0.680366 1.22386,-0.254165 1.34341,-0.128974 1.91984,-0.257133 1.39342,-0.309728 3.85587,-0.479431 5.55005,-0.36764 0.85965,0.05674 0.72667,0.111837 1.81694,0.248639 1.70421,0.213847 6.45268,0.782347 7.70994,1.20388 0.76836,0.257607 0.73317,0.214113 1.57054,0.464851 0.85806,0.256896 1.99898,0.540149 2.90223,0.929357 0.99892,0.430457 1.88944,0.97049 2.61922,1.305051 1.87537,0.859732 9.07609,5.454481 13.23519,9.714179 6.79926,6.963735 12.4084,20.901711 12.46221,30.96692 0.0271,5.087384 -2.79141,15.548153 -4.80295,17.825217 -1.04297,1.180673 -2.17531,2.581661 -2.51626,3.113328 -1.75437,2.735463 -4.62294,4.128703 -10.77012,4.715993 -12.03984,1.15027 -21.05703,4.5825 -20.80158,7.917726 0.16616,2.169299 0.97752,1.067189 1.9501,0.560419 3.73465,-1.945965 4.00891,-1.122515 6.52351,3.75782 2.93006,5.68672 2.99419,7.91937 0.24974,8.69625 -1.90046,0.53798 -1.75589,2.13692 0.80993,2.52755 3.59659,0.5476 4.56657,0.46658 10.96758,-2.51171 12.60804,-5.86633 27.7533,-5.82276 35.80341,0.10301 3.08825,2.27324 8.47926,11.74005 10.98496,19.28996 1.34556,4.05423 6.24739,29.44011 6.24739,32.35427 0,1.18063 -9.79488,6.76585 -11.86535,6.76585 -1.7005,0 -1.75256,-0.16628 2.9934,9.55793 4.30707,8.82475 5.23914,9.76898 9.65046,9.77593 4.61885,0.007 16.16226,8.86144 21.44453,16.44861 6.45476,9.2713 10.17188,22.00584 9.35276,32.04183 -0.50838,6.22885 -2.11639,9.48324 -5.88592,11.91234 -2.22449,1.43347 -2.43996,1.4208 -3.70093,-0.2173 -1.76262,-2.28982 -1.75966,-5.80297 0.006,-6.46912 2.55555,-0.96447 1.31541,-16.62923 -1.44954,-18.30984 -0.50176,-0.30498 -1.17119,0.71867 -1.48765,2.2748 -0.31645,1.55613 -1.95119,4.01732 -3.63272,5.46935 -1.68153,1.45203 -3.34131,3.52 -3.6884,4.59548 -0.82338,2.55144 -4.91262,2.5989 -9.86421,0.1145 -6.33591,-3.17893 -7.13104,-2.734 -7.81344,4.37224 -1.06657,11.10654 -0.86896,12.85325 1.52088,13.44315 1.67054,0.41236 4.30276,4.75866 12.18511,20.12008 9.07846,17.69241 10.05253,20.07192 10.03627,24.5175 -0.0155,4.23655 0.60687,5.97019 4.46095,12.42639 2.46341,4.12665 5.01465,8.78535 5.6694,10.35268 1.18875,2.84567 5.13865,5.45552 19.33348,12.77436 7.50093,3.86746 13.02809,7.45358 43.09941,27.96357 4.06671,2.77368 7.64584,4.06128 8.09798,2.91332 0.40702,-1.03335 12.38454,0.74339 17.4546,2.58922 4.20908,1.53236 4.35965,1.71798 4.62543,5.70202 0.4761,7.13614 -12.09741,54.46825 -14.93996,56.2405 -0.68508,0.42713 -1.45619,0.7265 -1.71357,0.66532 -0.25738,-0.0612 -1.52089,-0.30163 -2.8078,-0.53433 z"
     id="path7570"
     inkscape:connector-curvature="0"
     sodipodi:nodetypes="cssscccsssssssscsssscssssssssssssssscssscsssssssscsscssssssscsscsscsssssssssscscsssssssssssssssssssssssssssscssssssssssssssssssssssscscsssssssssssscsssscsssssssscssssssssccc" />
  <g
     inkscape:groupmode="layer"
     id="layer1"
     inkscape:label="Layer"
     style="opacity:0.63386554;display:inline"
     transform="translate(-1.3983127,-0.40677929)">
    <path
       style="fill:#000000"
       d="m 370.6123,431.58719 c -3.84509,-0.69526 -4.4213,-1.78907 -4.86593,-9.2366 -0.51098,-8.55908 -1.8657,-10.99638 -6.8332,-12.29386 -2.05906,-0.53781 -5.07576,-1.53691 -6.70378,-2.2202 l -2.96003,-1.24235 1.86604,-7.16397 1.86607,-7.16397 -2.05148,-1.63374 c -2.23773,-1.78208 -4.24676,-2.1027 -5.06059,-0.80762 -0.71522,1.13814 -20.21926,-6.74006 -39.45481,-15.93688 -9.65053,-4.61407 -17.81957,-7.91429 -20.59051,-8.31834 -5.97565,-0.87144 -14.37872,-5.92024 -17.70123,-10.6354 -2.54052,-3.60544 -2.58647,-3.87832 -1.47549,-8.76074 0.63069,-2.77166 1.53767,-5.03938 2.01552,-5.03938 0.47783,0 0.86879,-0.364 0.86879,-0.80888 0,-0.45278 -1.87056,-0.41654 -4.24886,0.0825 -3.07578,0.64517 -4.61817,0.58986 -5.58631,-0.20036 -1.93024,-1.5755 -13.87005,-19.04379 -16.35368,-23.92587 -1.15894,-2.27817 -2.63998,-4.76343 -3.29116,-5.52283 -0.6512,-0.75939 -2.57064,-4.0731 -4.26542,-7.36378 -1.69479,-3.29071 -3.16662,-6.10439 -3.27075,-6.25265 -0.20628,-0.29372 -4.78595,1.56522 -12.12023,4.91969 -12.24615,5.60106 -14.11271,6.15192 -22.46235,6.62907 -7.17719,0.41013 -9.4619,0.9732 -15.44287,3.80581 -8.50961,4.03018 -9.04457,5.59852 -4.84389,14.20058 1.76364,3.61153 3.5209,9.73018 4.80712,16.73806 2.80457,15.28046 4.69697,25.08372 5.72018,29.63263 0.47747,2.12266 0.86811,5.04653 0.86811,6.49749 0,2.9789 2.03087,6.21164 3.90227,6.21164 0.78268,0 1.41919,1.53884 1.71331,4.14214 0.32353,2.8637 0.90126,4.14212 1.87188,4.14212 1.15284,0 1.44602,1.89285 1.63959,10.58544 0.12963,5.82199 -0.17238,11.20675 -0.67117,11.96615 -0.77448,1.17913 -4.97678,1.37035 -28.78163,1.30986 -31.41608,-0.08 -37.19367,-0.7955 -38.74114,-4.79846 -1.43479,-3.71142 -0.16849,-7.46003 2.75156,-8.14545 1.37457,-0.32263 2.92043,-0.82803 3.43521,-1.12309 0.51475,-0.29504 1.77825,-0.66056 2.80778,-0.81227 2.23378,-0.32915 8.69784,-3.35443 10.99719,-5.14691 1.24107,-0.96748 1.63788,-2.64597 1.63788,-6.92827 l 0,-5.65152 2.90793,0 c 1.96372,0 2.74882,-0.3736 2.41795,-1.1506 -0.26951,-0.63282 -2.24068,-5.22676 -4.38043,-10.20873 -4.5909,-10.68914 -8.57897,-21.26311 -11.85887,-31.44269 -3.50154,-10.86735 -4.13067,-12.31697 -7.35522,-16.94705 -5.81391,-8.34817 -8.07474,-21.11754 -4.38187,-24.74942 2.02175,-1.98834 17.97934,-7.65808 25.41828,-9.03113 0.75014,-0.13844 2.43482,-0.77983 3.74373,-1.42529 1.30892,-0.64545 2.48964,-1.22622 2.62381,-1.29056 0.13416,-0.0643 -0.32807,-1.73494 -1.02725,-3.7124 -3.04284,-8.60571 -3.12296,-8.30869 3.33657,-12.3691 l 5.87012,-3.6899 -4.21171,0.61242 c -2.31642,0.33686 -5.18673,0.96656 -6.37846,1.39936 -3.89386,1.41414 -5.39422,0.88536 -7.02377,-2.47542 -2.47111,-5.0964 -3.3362,-10.00727 -2.14511,-12.17766 0.57223,-1.04267 4.7346,-6.26246 9.24975,-11.59949 6.58603,-7.78494 8.89941,-9.89222 11.69915,-10.65692 4.91865,-1.34346 5.62289,-1.22975 6.8594,1.10759 0.60261,1.13909 1.20133,2.19661 1.33054,2.35005 0.12919,0.15341 1.86209,-1.23019 3.85091,-3.07472 1.98883,-1.84451 6.76577,-5.68072 10.61545,-8.5249 l 6.99941,-5.17126 11.85735,-1.07482 c 8.65244,-0.78431 12.45663,-1.51937 14.07447,-2.71955 l 2.21713,-1.64476 -2.35524,-4.66874 c -1.29539,-2.56778 -3.40816,-7.24635 -4.69507,-10.39678 -1.28691,-3.15044 -2.72366,-5.84904 -3.19281,-5.99689 -0.46912,-0.14784 -2.50701,2.11294 -4.52864,5.02392 -2.02161,2.91099 -4.06994,5.29272 -4.5518,5.29272 -0.48187,0 -1.27959,-0.93198 -1.77272,-2.07105 -0.4931,-1.1391 -1.8515,-3.56635 -3.0186,-5.39393 -1.16713,-1.82755 -3.32026,-5.24481 -4.78477,-7.59388 -1.46453,-2.34909 -3.04124,-4.27106 -3.50382,-4.27106 -0.46258,0 -4.10779,2.81606 -8.10044,6.25791 -9.03519,7.78866 -11.38759,9.3907 -13.78523,9.38793 -2.1346,-0.003 -11.62501,-6.05538 -16.01401,-10.21363 l -2.88526,-2.73351 -1.69008,3.68597 c -2.17503,4.74371 -4.58321,6.86872 -7.06166,6.23132 -1.40896,-0.36238 -2.7553,0.37055 -4.86079,2.64614 -1.74968,1.89097 -3.79713,3.14732 -5.12916,3.14732 -3.04212,0 -23.19403,-13.47874 -28.38541,-18.98578 -4.95486,-5.25612 -7.47,-8.92519 -7.47,-10.89721 0,-1.92703 -1.14173,-1.77392 -3.04119,0.40786 -1.06576,1.22415 -2.13415,1.60125 -3.25986,1.15058 -2.582917,-1.03401 -20.840968,-16.11193 -20.840968,-17.21095 0,-0.53512 1.488291,-3.14643 3.307311,-5.80291 2.682901,-3.91806 3.698915,-4.7428 5.381603,-4.3684 2.021648,0.44983 11.413124,2.06412 17.049214,2.93059 12.73014,1.95705 14.125,2.68729 11.20157,5.86425 -1.32554,1.44053 -0.9908,1.64144 4.44568,2.66837 3.23355,0.61079 8.82736,2.20856 12.4307,3.55056 5.58589,2.08039 7.25047,3.25797 11.29375,7.98956 5.08872,5.95502 11.88342,11.53261 14.04915,11.53261 0.7592,0 1.33116,-0.89601 1.33116,-2.08532 0,-1.3174 2.0543,-4.11379 5.57867,-7.59388 3.25808,-3.2172 5.83832,-6.65728 6.20289,-8.27003 0.34332,-1.51878 1.82614,-4.1132 3.29518,-5.76539 1.46902,-1.65216 3.27043,-4.13744 4.00312,-5.52283 0.73267,-1.38538 3.04702,-3.76151 5.143,-5.28029 2.66001,-1.92753 3.82028,-3.45635 3.84211,-5.06261 0.0641,-4.71867 4.29066,-11.54927 9.73288,-15.7295 4.06372,-3.12138 4.21716,-3.7032 5.15895,-5.37954 1.15254,-2.05148 1.78487,-2.56664 2.17793,-4.19543 0.15659,-0.64899 0.0964,-2.60861 -2.21534,-1.78161 -1.65738,0.59291 -2.9688,1.31449 -3.1161,1.15059 -0.68706,-0.7645 -5.17383,-11.04431 -5.17383,-11.85396 0,-0.5038 0.24493,-0.89572 1.62784,-1.37557 1.18793,-0.41223 1.55032,-0.91368 0.7568,-1.69408 -0.79353,-0.78042 -1.77683,0.33991 -8.40095,6.64232 -7.82407,7.44406 -9.27087,8.44353 -12.22239,8.44353 -4.85824,0 -9.50547,-2.21804 -11.13317,-5.31369 -0.78004,-1.4835 -2.96392,-4.03198 -4.85308,-5.66327 -3.54482,-3.06102 -3.72695,-4.13481 -1.80712,-10.654153 0.35372,-1.201141 -0.60186,-3.600443 -2.74958,-6.903556 -6.93654,-10.668201 -8.36355,-14.523129 -8.78545,-23.733076 -0.37007,-8.078978 -0.23339,-8.861023 2.50497,-14.331524 3.25896,-6.510563 6.78169,-10.399021 14.96796,-16.521889 5.94082,-4.443406 19.19876,-10.3461 20.46484,-10.818942 1.07898,-0.402964 2.84184,-1.033514 3.68867,-1.315836 0.9762,-0.325476 1.89143,-0.463653 2.93487,-0.680366 1.22384,-0.254165 1.34341,-0.128973 1.91984,-0.257133 1.39341,-0.309728 3.85586,-0.47943 5.55002,-0.36764 0.85965,0.05674 0.72669,0.111837 1.81695,0.24864 1.7042,0.213846 6.45268,0.782346 7.70994,1.20388 0.76835,0.257606 0.73317,0.214112 1.57054,0.464851 0.85806,0.256895 1.999,0.540149 2.90222,0.929356 0.99894,0.430457 1.88945,0.970491 2.61922,1.305051 1.8754,0.859733 9.0761,5.454481 13.23519,9.714179 6.79926,6.963734 12.40839,20.901711 12.46222,30.96692 0.0272,5.087373 -2.79142,15.548147 -4.80296,17.82521 -1.04297,1.180675 -2.17529,2.581662 -2.51626,3.11333 -1.75435,2.735459 -4.62294,4.128703 -10.77012,4.715995 -12.03983,1.15027 -21.05701,4.582494 -20.80156,7.917733 0.16615,2.1693 0.97751,1.06721 1.95011,0.56043 3.73463,-1.945986 4.0089,-1.12254 6.52349,3.75781 2.93007,5.68672 2.99419,7.91937 0.24975,8.69625 -1.90046,0.53799 -1.75591,2.13691 0.80994,2.52756 3.59656,0.54759 4.56657,0.46657 10.96755,-2.51172 12.60804,-5.86632 27.7533,-5.82275 35.80342,0.103 3.08824,2.27326 8.47924,11.74006 10.98497,19.28997 1.34553,4.05423 6.24737,29.44012 6.24737,32.35427 0,1.18063 -9.79487,6.76585 -11.86535,6.76585 -1.7005,0 -1.75257,-0.16627 2.99342,9.55793 4.30704,8.82475 5.23911,9.76898 9.65045,9.77594 4.61884,0.007 16.16224,8.86143 21.44451,16.4486 6.45476,9.2713 10.17188,22.00584 9.35277,32.04184 -0.50838,6.22883 -2.11639,9.48324 -5.88592,11.91234 -2.22449,1.43346 -2.43997,1.4208 -3.70093,-0.21731 -1.76263,-2.28981 -1.75965,-5.80298 0.006,-6.46912 2.55554,-0.96446 1.3154,-16.62922 -1.44955,-18.30984 -0.50176,-0.30498 -1.17119,0.71868 -1.48765,2.2748 -0.31645,1.55614 -1.95118,4.01733 -3.63271,5.46936 -1.68155,1.45202 -3.34133,3.52 -3.68841,4.59548 -0.82339,2.55144 -4.91261,2.5989 -9.86422,0.1145 -6.33589,-3.17894 -7.13102,-2.734 -7.81344,4.37224 -1.06656,11.10654 -0.86896,12.85324 1.52089,13.44315 1.67053,0.41236 4.30275,4.75865 12.1851,20.12007 9.07847,17.69242 10.05253,20.07193 10.03628,24.5175 -0.0155,4.23655 0.60687,5.97019 4.46095,12.4264 2.46343,4.12664 5.01465,8.78534 5.66939,10.35266 1.18878,2.84568 5.13867,5.45553 19.3335,12.77438 7.50092,3.86745 13.02809,7.45357 43.09939,27.96357 4.06672,2.77368 7.64584,4.06128 8.09799,2.91332 0.40702,-1.03335 12.38454,0.74338 17.4546,2.58922 4.20908,1.53235 4.35967,1.71797 4.62545,5.70201 0.47607,7.13614 -12.09743,54.46826 -14.93997,56.2405 -0.68508,0.42712 -1.4562,0.7265 -1.71357,0.66532 -0.25738,-0.0612 -1.52091,-0.30163 -2.80781,-0.53432 z"
       id="path7570-9"
       inkscape:connector-curvature="0"
       sodipodi:nodetypes="cssscccsssssssscsssscssssssssssssssscssscsssssssscsscssssssscsscsscsssssssssscscsssssssssssssssssssssssssssscssssssssssssssssssssssscscsssssssssssscsssscsssssssscssssssssccc" />
    <path
       style="opacity:0.63386554;fill:#000000;display:inline"
       d="m 408.68327,431.5872 c -3.84509,-0.69526 -4.4213,-1.78906 -4.86593,-9.2366 -0.51098,-8.55907 -1.86569,-10.99638 -6.8332,-12.29386 -2.05906,-0.53781 -5.07575,-1.53691 -6.70377,-2.2202 l -2.96005,-1.24235 1.86607,-7.16397 1.86604,-7.16397 -2.05147,-1.63374 c -2.23773,-1.78208 -4.24675,-2.1027 -5.0606,-0.80762 -0.71521,1.13814 -20.21925,-6.74006 -39.4548,-15.93688 -9.65053,-4.61407 -17.81957,-7.91428 -20.59051,-8.31833 -5.97565,-0.87145 -14.37872,-5.92025 -17.70123,-10.63541 -2.54052,-3.60544 -2.58647,-3.87832 -1.47549,-8.76074 0.63069,-2.77166 1.53767,-5.03938 2.01552,-5.03938 0.47783,0 0.86879,-0.364 0.86879,-0.80888 0,-0.45278 -1.87055,-0.41653 -4.24887,0.0825 -3.07577,0.64517 -4.61816,0.58986 -5.5863,-0.20036 -1.93024,-1.5755 -13.87005,-19.04379 -16.35368,-23.92587 -1.15895,-2.27817 -2.63998,-4.76343 -3.29117,-5.52283 -0.65118,-0.75939 -2.57062,-4.07309 -4.26541,-7.36378 -1.69479,-3.29071 -3.16662,-6.10439 -3.27075,-6.25265 -0.20628,-0.29372 -4.78596,1.56522 -12.12023,4.91969 -12.24615,5.60106 -14.11271,6.15192 -22.46236,6.62907 -7.17718,0.41013 -9.46189,0.97321 -15.44287,3.80581 -8.50961,4.03018 -9.04456,5.59852 -4.84388,14.20059 1.76364,3.61152 3.52089,9.73017 4.8071,16.73805 2.80458,15.28046 4.69698,25.08372 5.7202,29.63263 0.47747,2.12266 0.86812,5.04653 0.86812,6.49749 0,2.9789 2.03086,6.21165 3.90226,6.21165 0.78267,0 1.41919,1.53883 1.71332,4.14213 0.32352,2.8637 0.90125,4.14212 1.87186,4.14212 1.15286,0 1.44603,1.89285 1.6396,10.58544 0.12964,5.82199 -0.17238,11.20675 -0.67117,11.96615 -0.77449,1.17913 -4.97678,1.37035 -28.78162,1.30986 -31.4161,-0.08 -37.19369,-0.7955 -38.74115,-4.79846 -1.4348,-3.71142 -0.16851,-7.46003 2.75156,-8.14545 1.37456,-0.32263 2.92041,-0.82803 3.43519,-1.12309 0.51476,-0.29504 1.77826,-0.66056 2.80778,-0.81227 2.23379,-0.32914 8.69784,-3.35443 10.9972,-5.14691 1.24107,-0.96748 1.63787,-2.64597 1.63787,-6.92827 l 0,-5.65152 2.90794,0 c 1.96371,0 2.74883,-0.3736 2.41794,-1.1506 -0.26951,-0.63281 -2.24067,-5.22676 -4.38042,-10.20873 -4.5909,-10.68914 -8.57897,-21.26311 -11.85887,-31.44269 -3.50154,-10.86735 -4.13067,-12.31697 -7.35521,-16.94705 -5.81392,-8.34817 -8.07475,-21.11754 -4.38189,-24.74942 2.02176,-1.98834 17.97934,-7.65808 25.41829,-9.03113 0.75013,-0.13844 2.43481,-0.77983 3.74374,-1.42529 1.30891,-0.64545 2.48963,-1.22622 2.6238,-1.29056 0.13416,-0.0643 -0.32808,-1.73493 -1.02725,-3.71239 -3.04284,-8.60572 -3.12297,-8.3087 3.33656,-12.36911 l 5.87012,-3.6899 -4.2117,0.61243 c -2.31642,0.33685 -5.18673,0.96655 -6.37846,1.39935 -3.89386,1.41414 -5.39422,0.88537 -7.02378,-2.47542 -2.4711,-5.0964 -3.33618,-10.00727 -2.1451,-12.17765 0.57223,-1.04268 4.7346,-6.26246 9.24974,-11.5995 6.58605,-7.78494 8.89942,-9.89222 11.69916,-10.65692 4.91865,-1.34346 5.6229,-1.22974 6.85941,1.10759 0.60259,1.13909 1.20133,2.19661 1.33053,2.35005 0.12918,0.15342 1.86209,-1.23019 3.8509,-3.07471 1.98884,-1.84451 6.76579,-5.68073 10.61548,-8.52491 l 6.9994,-5.17126 11.85735,-1.07482 c 8.65243,-0.78431 12.45662,-1.51937 14.07447,-2.71955 l 2.21713,-1.64476 -2.35524,-4.66874 c -1.29539,-2.56778 -3.40817,-7.24634 -4.69507,-10.39678 -1.28691,-3.15044 -2.72366,-5.84904 -3.19279,-5.99689 -0.46914,-0.14783 -2.50703,2.11294 -4.52866,5.02392 -2.02161,2.91099 -4.06994,5.29272 -4.55179,5.29272 -0.48189,0 -1.27959,-0.93198 -1.77273,-2.07105 -0.4931,-1.1391 -1.8515,-3.56635 -3.01861,-5.39393 -1.16712,-1.82755 -3.32025,-5.24481 -4.78476,-7.59388 -1.46453,-2.34909 -3.04123,-4.27106 -3.50381,-4.27106 -0.4626,0 -4.1078,2.81606 -8.10046,6.25791 -9.03519,7.78866 -11.38759,9.3907 -13.78523,9.38794 -2.13459,-0.003 -11.62502,-6.05539 -16.01401,-10.21364 l -2.88527,-2.73351 -1.69007,3.68597 c -2.17503,4.74371 -4.58321,6.86872 -7.06166,6.23132 -1.40896,-0.36238 -2.75531,0.37055 -4.8608,2.64614 -1.74967,1.89097 -3.79712,3.14732 -5.12914,3.14732 -3.04213,0 -23.19403,-13.47874 -28.38542,-18.98578 -4.95486,-5.25612 -7.46998,-8.92518 -7.46998,-10.89721 0,-1.92703 -1.14175,-1.77392 -3.04119,0.40786 -1.06576,1.22415 -2.13417,1.60126 -3.25986,1.15058 -2.58291,-1.03401 -20.84099,-16.11193 -20.84099,-17.21094 0,-0.53513 1.4883,-3.14644 3.30732,-5.80291 2.68289,-3.91807 3.69891,-4.74281 5.3816,-4.36841 2.02166,0.44983 11.41314,2.06412 17.0492,2.93059 12.73016,1.95705 14.12501,2.68729 11.2016,5.86425 -1.32556,1.44053 -0.99082,1.64144 4.44566,2.66837 3.23355,0.61079 8.82736,2.20856 12.4307,3.55057 5.58589,2.08038 7.25047,3.25796 11.29375,7.98955 5.08872,5.95502 11.88342,11.53261 14.04916,11.53261 0.75919,0 1.33115,-0.896 1.33115,-2.08531 0,-1.31741 2.05429,-4.1138 5.57866,-7.59389 3.2581,-3.2172 5.83833,-6.65728 6.2029,-8.27002 0.34332,-1.51879 1.82615,-4.11321 3.29518,-5.76539 1.46903,-1.65217 3.27043,-4.13745 4.00311,-5.52283 0.73268,-1.38539 3.04702,-3.76152 5.143,-5.2803 2.66002,-1.92753 3.82028,-3.45635 3.84212,-5.06261 0.0642,-4.71867 4.29065,-11.54927 9.73289,-15.7295 4.06372,-3.12138 4.21716,-3.7032 5.15895,-5.37954 1.15254,-2.05148 1.78487,-2.56664 2.17793,-4.19543 0.15659,-0.64899 0.0964,-2.60861 -2.21535,-1.78161 -1.65737,0.59292 -2.96878,1.31449 -3.11609,1.15059 -0.68706,-0.7645 -5.17384,-11.04431 -5.17384,-11.85396 0,-0.5038 0.24494,-0.89572 1.62785,-1.37557 1.18793,-0.41223 1.55032,-0.91368 0.7568,-1.69408 -0.79353,-0.78042 -1.77682,0.33991 -8.40096,6.64232 -7.82407,7.44406 -9.27087,8.44354 -12.22239,8.44354 -4.85824,0 -9.50547,-2.21805 -11.13318,-5.3137 -0.78003,-1.4835 -2.96392,-4.03198 -4.85306,-5.66327 -3.54484,-3.06102 -3.72695,-4.13481 -1.80711,-10.654152 0.3537,-1.201139 -0.60188,-3.600443 -2.74959,-6.903556 -6.93654,-10.6682 -8.36356,-14.52314 -8.78546,-23.733088 -0.37007,-8.078977 -0.23339,-8.861022 2.50497,-14.331523 3.25897,-6.510563 6.78169,-10.399021 14.96795,-16.521889 5.94083,-4.443406 19.19877,-10.3461 20.46485,-10.818942 1.07897,-0.402964 2.84183,-1.033514 3.68866,-1.315836 0.97621,-0.325476 1.89145,-0.463653 2.93488,-0.680366 1.22384,-0.254165 1.34341,-0.128973 1.91984,-0.257133 1.39342,-0.309728 3.85587,-0.47943 5.55003,-0.36764 0.85966,0.05674 0.72668,0.111837 1.81695,0.24864 1.70421,0.213846 6.45269,0.782346 7.70994,1.20388 0.76837,0.257606 0.73316,0.214112 1.57054,0.464851 0.85806,0.256895 1.99899,0.540149 2.90222,0.929356 0.99894,0.430457 1.88946,0.970491 2.61923,1.305051 1.87539,0.859733 9.07609,5.454481 13.23518,9.714179 6.79925,6.963734 12.40839,20.901711 12.46221,30.966919 0.0272,5.087377 -2.7914,15.54816 -4.80294,17.825222 -1.04297,1.180675 -2.17531,2.581662 -2.51627,3.11333 -1.75436,2.73546 -4.62293,4.128704 -10.77012,4.715995 -12.03983,1.15027 -21.05701,4.582494 -20.80157,7.917732 0.16617,2.1693 0.97752,1.06721 1.95011,0.56043 3.73463,-1.945986 4.00891,-1.12253 6.52351,3.75781 2.93005,5.68672 2.99418,7.91937 0.24973,8.69625 -1.90045,0.53799 -1.75589,2.13692 0.80994,2.52756 3.59657,0.54759 4.56658,0.46657 10.96758,-2.51172 12.60802,-5.86632 27.75328,-5.82275 35.8034,0.103 3.08824,2.27326 8.47926,11.74006 10.98496,19.28997 1.34555,4.05423 6.24738,29.44012 6.24738,32.35427 0,1.18063 -9.79488,6.76585 -11.86535,6.76585 -1.7005,0 -1.75256,-0.16627 2.99341,9.55793 4.30705,8.82475 5.23912,9.76898 9.65045,9.77594 4.61886,0.007 16.16225,8.86143 21.44453,16.4486 6.45476,9.27131 10.17188,22.00584 9.35276,32.04184 -0.50837,6.22884 -2.11639,9.48324 -5.88592,11.91234 -2.22448,1.43346 -2.43997,1.4208 -3.70093,-0.21731 -1.76262,-2.28981 -1.75965,-5.80298 0.006,-6.46912 2.55554,-0.96446 1.31541,-16.62922 -1.44955,-18.30984 -0.50176,-0.30497 -1.17119,0.71868 -1.48764,2.2748 -0.31645,1.55614 -1.95119,4.01733 -3.63273,5.46936 -1.68153,1.45202 -3.34131,3.52 -3.68839,4.59548 -0.8234,2.55144 -4.91262,2.5989 -9.86423,0.1145 -6.3359,-3.17894 -7.13103,-2.734 -7.81343,4.37224 -1.06657,11.10654 -0.86897,12.85324 1.52088,13.44315 1.67053,0.41236 4.30276,4.75865 12.18512,20.12007 9.07845,17.69242 10.05251,20.07193 10.03626,24.5175 -0.0155,4.23655 0.60686,5.97019 4.46095,12.4264 2.46342,4.12664 5.01465,8.78534 5.66941,10.35267 1.18875,2.84567 5.13865,5.45552 19.33348,12.77437 7.50091,3.86745 13.02809,7.45357 43.0994,27.96357 4.06671,2.77368 7.64583,4.06128 8.09798,2.91332 0.40702,-1.03335 12.38454,0.74338 17.4546,2.58922 4.20907,1.53235 4.35966,1.71797 4.62545,5.70201 0.47607,7.13615 -12.09743,54.46826 -14.93997,56.24051 -0.68508,0.42712 -1.4562,0.72649 -1.71357,0.66531 -0.25739,-0.0612 -1.52091,-0.30162 -2.80782,-0.53432 z"
       id="path7570-9-6"
       inkscape:connector-curvature="0"
       sodipodi:nodetypes="cssscccsssssssscsssscssssssssssssssscssscsssssssscsscssssssscsscsscsssssssssscscsssssssssssssssssssssssssssscssssssssssssssssssssssscscsssssssssssscsssscsssssssscssssssssccc" />
  </g>
  <g
     inkscape:groupmode="layer"
     id="layer2"
     inkscape:label="Layer#1"
     style="display:inline"
     transform="translate(-1.3983127,-0.40677929)" />
</svg>
