<?xml version="1.0" encoding="UTF-8" standalone="no"?>
<!-- Created with Inkscape (http://www.inkscape.org/) -->

<svg
   xmlns:dc="http://purl.org/dc/elements/1.1/"
   xmlns:cc="http://creativecommons.org/ns#"
   xmlns:rdf="http://www.w3.org/1999/02/22-rdf-syntax-ns#"
   xmlns:svg="http://www.w3.org/2000/svg"
   xmlns="http://www.w3.org/2000/svg"
   xmlns:sodipodi="http://sodipodi.sourceforge.net/DTD/sodipodi-0.dtd"
   xmlns:inkscape="http://www.inkscape.org/namespaces/inkscape"
   id="svg2"
   version="1.1"
   inkscape:version="0.48.4 r9939"
   width="345"
   height="413"
   sodipodi:docname="iCubStanding.png">
  <metadata
     id="metadata8">
    <rdf:RDF>
      <cc:Work
         rdf:about="">
        <dc:format>image/svg+xml</dc:format>
        <dc:type
           rdf:resource="http://purl.org/dc/dcmitype/StillImage" />
        <dc:title></dc:title>
      </cc:Work>
    </rdf:RDF>
  </metadata>
  <defs
     id="defs6" />
  <sodipodi:namedview
     pagecolor="#ffffff"
     bordercolor="#666666"
     borderopacity="1"
     objecttolerance="10"
     gridtolerance="10"
     guidetolerance="10"
     inkscape:pageopacity="0"
     inkscape:pageshadow="2"
     inkscape:window-width="1366"
     inkscape:window-height="744"
     id="namedview4"
     showgrid="false"
     inkscape:zoom="1.6162441"
     inkscape:cx="69.174022"
     inkscape:cy="185.46357"
     inkscape:window-x="0"
     inkscape:window-y="24"
     inkscape:window-maximized="1"
     inkscape:current-layer="svg2" />
  <path
     style="fill:#000000"
     d="m 124.83628,396.876 c -1.07707,-0.29393 -2.94496,-1.1809 -4.15086,-1.97104 -2.01811,-1.32231 -2.23114,-2.44704 -2.67759,-14.13655 -0.26678,-6.98497 -1.407,-21.71417 -2.53382,-32.73155 -2.07155,-20.25439 -2.70168,-41.18729 -1.55684,-51.7184 0.47166,-4.33863 0.30998,-5.75 -0.65869,-5.75 -1.03103,0 -1.12922,-4.67571 -0.49871,-23.75 0.43179,-13.0625 1.06627,-27.125 1.40995,-31.25 0.55792,-6.69631 0.85679,-7.53304 2.78906,-7.8083 1.77109,-0.25231 2.28736,-1.20392 2.84235,-5.23915 0.86699,-6.30377 4.11417,-11.17923 8.26495,-12.40935 3.78867,-1.1228 4.10601,-2.13294 0.97852,-3.11479 -1.2375,-0.3885 -3.17381,-1.65633 -4.3029,-2.81739 -1.1291,-1.16106 -3.35822,-3.044 -4.95361,-4.1843 l -2.90069,-2.07328 1.20391,-8.92672 c 1.47181,-10.91309 3.10679,-16.42672 4.87107,-16.42672 0.76533,0 1.33222,-1.09767 1.33222,-2.57957 l 0,-2.57956 10.1797,0.27337 10.1797,0.27338 1.24422,-3.44381 c 1.65158,-4.5713 1.64642,-4.94381 -0.0684,-4.94381 -0.80565,0 -1.92231,-0.85485 -2.48148,-1.89966 -0.74526,-1.39252 -2.61131,-2.08475 -6.98986,-2.59293 -3.28526,-0.3813 -6.37864,-1.21395 -6.87419,-1.85034 -1.25157,-1.6073 -2.92961,-8.95906 -3.76534,-16.49662 l -0.70291,-6.33956 -2.3607,2.54591 c -1.29838,1.40025 -2.3607,2.7997 -2.3607,3.10988 0,0.31018 -3.825,6.65958 -8.5,14.10977 -5.16645,8.23338 -8.50242,14.59838 -8.50616,16.22968 -0.003,1.47613 -0.69394,4.00279 -1.53456,5.6148 -2.681006,5.1412 -12.801586,16.80727 -17.536846,20.21483 -3.97483,2.86035 -5.1415,4.61478 -8.86038,13.32417 -2.55998,5.9953 -4.85473,10.03007 -5.70455,10.03007 -3.87366,0 -7.95837,-2.8951 -10.07497,-7.14078 l -2.21747,-4.44801 7.48997,-17.40614 c 8.05455,-18.71818 11.0392,-24.42289 14.34133,-27.41127 2.00298,-1.81268 2.68904,-1.30132 2.22206,1.6562 -0.20185,1.27838 2.6394,0.8235 3.14886,-0.50414 0.26469,-0.68977 0.0146,-3.82886 -0.55582,-6.97575 -1.25188,-6.90666 0.27492,-11.14321 6.33416,-17.576 2.13733,-2.26909 5.09137,-6.05354 6.56452,-8.40987 4.231406,-6.76821 8.487306,-11.84205 9.439426,-11.2536 0.48069,0.29708 1.59696,-1.94682 2.48061,-4.98645 1.79215,-6.16479 4.31049,-8.54419 9.0431,-8.54419 3.85271,0 9.42672,1.8602 9.42672,3.14596 0,0.52267 1.61061,-0.61389 3.57913,-2.52569 2.26364,-2.19842 5.38777,-3.939551 8.5,-4.737181 2.75069,-0.70498 4.92087,-1.83933 4.92087,-2.572132 0,-1.34871 1.75056,-1.63167 8.24088,-1.33203 l 3.74088,0.1727 -2.66851,-4.07581 c -1.65453,-2.52708 -3.431,-4.07581 -4.67516,-4.07581 -3.17582,0 -10.3634,-3.88484 -13.01258,-7.03321 -1.33165,-1.58257 -3.60402,-3.174277 -5.04972,-3.537125 -4.03477,-1.012663 -4.69284,-3.338737 -3.94688,-13.950962 0.59209,-8.423176 0.95446,-9.792423 3.02193,-11.418693 2.0323,-1.598608 2.34916,-2.718952 2.34916,-8.306048 0,-5.052814 0.49255,-7.189093 2.26343,-9.816907 8.73889,-12.967638 32.37758,-14.407148 44.46773,-2.707922 3.71088,3.59089 4.98298,6.934565 5.70492,14.995257 0.34305,3.830144 1.15914,6.370828 2.46623,7.677917 2.37886,2.378859 3.5508,9.418518 2.79197,16.770875 -0.64211,6.221453 -1.95732,8.326817 -5.20171,8.326817 -1.28061,0 -2.94055,1.034761 -3.82477,2.384241 -1.84964,2.82292 -10.98134,7.602 -14.61414,7.64832 -1.91996,0.0245 -2.95655,0.89303 -4.17719,3.5 l -1.62353,3.46744 5.37353,0 c 4.70686,0 5.37353,0.24813 5.37353,2.000002 0,1.22973 0.67399,2.00846 1.75,2.02196 2.56845,0.0322 9.40098,3.402721 12.05228,5.945391 2.23443,2.14289 2.42278,2.15975 6.39127,0.57187 7.41109,-2.96533 12.43367,-0.032 14.76226,8.6216 0.75509,2.80608 1.92838,4.83713 2.94841,5.10387 0.93182,0.24368 3.65645,3.77131 6.05472,7.83918 2.39827,4.06786 5.63585,8.87113 7.19464,10.67392 6.26179,7.24203 7.8812,12.95606 5.79786,20.45763 -0.77904,2.80514 -0.71714,4.29941 0.24857,6 l 1.28597,2.26457 0.32343,-2.75 c 0.39262,-3.33826 1.22395,-3.44655 3.83827,-0.5 2.17897,2.45588 9.35232,17.83129 9.35232,20.04582 0,0.75539 1.8,5.79727 4,11.20418 2.2,5.40691 4,10.67426 4,11.70522 0,1.03095 -0.90034,3.63928 -2.00077,5.79628 -1.59774,3.13183 -2.82668,4.14422 -6.10094,5.02589 -2.25509,0.60723 -4.18967,0.96198 -4.29907,0.78833 -0.10939,-0.17364 -1.94884,-4.81394 -4.08768,-10.31176 -3.35013,-8.61143 -4.6158,-10.66049 -9.1373,-14.7929 -2.88669,-2.63826 -7.5368,-7.88356 -10.33359,-11.65622 -4.028,-5.43348 -5.16664,-7.82442 -5.47747,-11.50176 -0.21583,-2.55331 -0.83287,-5.18479 -1.37122,-5.84773 -0.53835,-0.66294 -2.32388,-3.68035 -3.96785,-6.70535 -1.64397,-3.025 -4.61692,-8.35573 -6.60657,-11.84607 -1.98965,-3.49033 -3.61754,-6.68309 -3.61754,-7.09501 0,-0.41192 -0.8574,-1.52488 -1.90532,-2.47324 -1.83212,-1.65804 -1.93162,-1.59676 -2.58971,1.59501 -3.88971,18.86537 -3.85904,18.81931 -12.53285,18.81931 -4.24231,0 -5.24839,0.34044 -5.66022,1.91531 -0.27548,1.05341 -1.5418,2.17656 -2.81405,2.49587 -2.16545,0.5435 -2.24324,0.82033 -1.218,4.3347 0.60235,2.06476 1.21659,3.92242 1.36499,4.12811 0.1484,0.2057 4.78902,0.29613 10.31249,0.20097 l 10.04267,-0.17303 0,2.54903 c 0,1.56927 0.56174,2.54904 1.46146,2.54904 1.90093,0 3.48757,5.74015 5.05559,18.29015 0.87487,7.00223 0.1425,9.19402 -3.58852,10.73945 -1.65273,0.68459 -3.4536,2.08298 -4.00193,3.10755 -0.54833,1.02457 -1.60103,1.86285 -2.33934,1.86285 -0.7383,0 -1.85956,0.62318 -2.49169,1.38485 -0.91645,1.10424 -0.64293,1.51194 1.34988,2.0121 4.50864,1.1316 6.53331,4.39094 8.13949,13.10305 0.1014,0.55 0.23627,1.7562 0.29971,2.68045 0.0641,0.93443 1.11422,1.82231 2.36535,2 2.1229,0.3015 2.28544,0.91266 2.87746,10.81955 0.95146,15.9217 0.98281,51 0.0456,51 -0.45482,0 -0.87151,7.5375 -0.92597,16.75 -0.0545,9.2125 -0.54593,21.475 -1.09217,27.25 -2.20382,23.29959 -3.4189,33.59764 -4.18868,35.5 -0.44512,1.1 -1.06389,7.14679 -1.37506,13.4373 -0.31117,6.29052 -0.90898,11.77517 -1.32846,12.18811 -0.60737,0.59789 -13.77779,1.2558 -18.8746,0.94286 -0.73999,-0.0454 -1.14331,-3.83122 -1.20581,-11.31827 -0.10242,-12.27075 -0.90534,-19.0392 -2.16612,-18.25999 -1.85102,1.14399 -2.37185,-4.3359 -2.80283,-29.49001 -0.30351,-17.71462 -0.0448,-29.73574 0.7803,-36.26019 0.95632,-7.56193 0.96571,-10.08386 0.0417,-11.19724 -0.87275,-1.0516 -1.10448,-8.04156 -0.86398,-26.06118 0.2964,-22.20773 0.50038,-24.72015 2.07865,-25.60246 0.9625,-0.53807 1.75,-1.55847 1.75,-2.26756 0,-0.97071 -2.96493,-1.33375 -12,-1.46934 -12.40539,-0.18616 -13.81797,0.32095 -10,3.59 1.88382,1.61297 1.99861,2.93399 1.97614,22.74021 -0.0131,11.56527 -0.47775,22.82776 -1.03251,25.02776 -0.55712,2.20933 -1.14347,20.56368 -1.3098,41 -0.19651,24.14484 -0.68435,37.86859 -1.4041,39.5 -0.60663,1.375 -1.13148,1.9375 -1.16634,1.25 -0.0349,-0.6875 -0.51342,-1.25 -1.06342,-1.25 -0.60317,0 -1,4.16667 -1,10.5 0,6.72343 -0.3809,10.5 -1.05902,10.5 -0.58246,0 -0.77411,0.46098 -0.4259,1.0244 1.06869,1.72918 -0.5546,6.85603 -2.33458,7.37331 -3.11374,0.90488 -10.66503,1.44848 -12.63882,0.90983 z"
     id="path2999"
     inkscape:connector-curvature="0" />
</svg>
