<?xml version="1.0" encoding="UTF-8" standalone="no"?>
<!-- Created with Inkscape (http://www.inkscape.org/) -->

<svg
   xmlns:dc="http://purl.org/dc/elements/1.1/"
   xmlns:cc="http://creativecommons.org/ns#"
   xmlns:rdf="http://www.w3.org/1999/02/22-rdf-syntax-ns#"
   xmlns:svg="http://www.w3.org/2000/svg"
   xmlns="http://www.w3.org/2000/svg"
   xmlns:xlink="http://www.w3.org/1999/xlink"
   xmlns:sodipodi="http://sodipodi.sourceforge.net/DTD/sodipodi-0.dtd"
   xmlns:inkscape="http://www.inkscape.org/namespaces/inkscape"
   id="svg3135"
   version="1.1"
   inkscape:version="0.48.4 r9939"
   width="450"
   height="450"
   sodipodi:docname="wholeBodyStates.svg"
   inkscape:export-filename="/home/jorhabib/Software/codyco/src/simulink/controllers/img/wholeBodyStates.png"
   inkscape:export-xdpi="100"
   inkscape:export-ydpi="100">
  <metadata
     id="metadata3141">
    <rdf:RDF>
      <cc:Work
         rdf:about="">
        <dc:format>image/svg+xml</dc:format>
        <dc:type
           rdf:resource="http://purl.org/dc/dcmitype/StillImage" />
        <dc:title />
      </cc:Work>
    </rdf:RDF>
  </metadata>
  <defs
     id="defs3139">
    <linearGradient
       id="linearGradient3859">
      <stop
         style="stop-color:#ffe169;stop-opacity:0.39215687;"
         offset="0"
         id="stop3861" />
      <stop
         style="stop-color:#ffcf0f;stop-opacity:1;"
         offset="1"
         id="stop3863" />
    </linearGradient>
    <clipPath
       clipPathUnits="userSpaceOnUse"
       id="clipPath3776">
      <rect
         style="fill:none;stroke:none"
         id="rect3778"
         width="450"
         height="450"
         x="-0.39358234"
         y="-35.803215" />
    </clipPath>
    <linearGradient
       y2="30.832336"
       x2="642.03992"
       y1="30.832336"
       x1="192.0399"
       gradientTransform="translate(-642.13059,-255.9867)"
       gradientUnits="userSpaceOnUse"
       id="linearGradient3140"
       xlink:href="#linearGradient3914"
       inkscape:collect="always" />
    <linearGradient
       id="linearGradient3914">
      <stop
         style="stop-color:#ffcf0f;stop-opacity:1;"
         offset="0"
         id="stop3916" />
      <stop
         id="stop3927"
         offset="0.5"
         style="stop-color:#ffffff;stop-opacity:0;" />
      <stop
         style="stop-color:#ffcf0f;stop-opacity:1;"
         offset="1"
         id="stop3918" />
    </linearGradient>
    <radialGradient
       inkscape:collect="always"
       xlink:href="#linearGradient3859"
       id="radialGradient3865"
       cx="225.96065"
       cy="226.92126"
       fx="225.96065"
       fy="226.92126"
       r="225"
       gradientUnits="userSpaceOnUse"
       gradientTransform="translate(0,-2)" />
    <radialGradient
       inkscape:collect="always"
       xlink:href="#linearGradient3859-4"
       id="radialGradient3865-8"
       cx="225.96065"
       cy="226.92126"
       fx="225.96065"
       fy="226.92126"
       r="225"
       gradientUnits="userSpaceOnUse"
       gradientTransform="translate(0,-2)" />
    <linearGradient
       id="linearGradient3859-4">
      <stop
         style="stop-color:#ffe169;stop-opacity:1;"
         offset="0"
         id="stop3861-1" />
      <stop
         style="stop-color:#ffcf0f;stop-opacity:1;"
         offset="1"
         id="stop3863-3" />
    </linearGradient>
  </defs>
  <sodipodi:namedview
     pagecolor="#ffffff"
     bordercolor="#666666"
     borderopacity="1"
     objecttolerance="10"
     gridtolerance="10"
     guidetolerance="10"
     inkscape:pageopacity="0"
     inkscape:pageshadow="2"
     inkscape:window-width="1366"
     inkscape:window-height="744"
     id="namedview3137"
     showgrid="false"
     showguides="true"
     inkscape:guide-bbox="true"
     inkscape:zoom="1.3472922"
     inkscape:cx="174.06288"
     inkscape:cy="259.18608"
     inkscape:window-x="0"
     inkscape:window-y="24"
     inkscape:window-maximized="1"
     inkscape:current-layer="layer3"
     fit-margin-top="0"
     fit-margin-left="0"
     fit-margin-right="0"
     fit-margin-bottom="0">
    <sodipodi:guide
       orientation="1,0"
       position="8.6457757,313.09049"
       id="guide7811" />
    <sodipodi:guide
       orientation="1,0"
       position="439.01329,292.91701"
       id="guide7813" />
    <sodipodi:guide
       orientation="0,1"
       position="268.9797,263.13712"
       id="guide7827" />
    <sodipodi:guide
       orientation="0,1"
       position="286.27125,439.8952"
       id="guide7836" />
    <sodipodi:guide
       orientation="0,1"
       position="255.5307,96.946093"
       id="guide3006" />
  </sodipodi:namedview>
  <g
     inkscape:groupmode="layer"
     id="layer4"
     inkscape:label="Layer"
     style="display:inline"
     transform="translate(-0.9606421,0.07873535)">
    <rect
       style="fill:#ffffff;fill-opacity:1;stroke:none;display:inline"
       id="rect7809-0"
       width="450"
       height="450"
       x="0.9606421"
       y="-0.078740001" />
  </g>
  <g
     inkscape:groupmode="layer"
     id="layer3"
     inkscape:label="background"
     style="display:inline"
     transform="translate(-0.9606421,0.07873535)">
    <rect
       style="fill:url(#radialGradient3865);fill-opacity:1;stroke:none"
       id="rect7809"
       width="450"
       height="450"
       x="0.9606421"
       y="-0.078735352" />
  </g>
  <g
     inkscape:groupmode="layer"
     id="layer1"
     inkscape:label="silhouette"
     style="display:inline"
     transform="translate(-0.9606421,37.078735)">
    <path
       style="fill:#000000"
       d="m 224.11376,167.44238 c -10.13416,0.15667 -19.98434,4.20117 -25.1617,11.88385 -1.97489,2.93054 -2.54405,5.30801 -2.54405,10.94291 0,6.23073 -0.34733,7.48733 -2.61375,9.2701 -2.30564,1.81361 -2.72015,3.32672 -3.38045,12.72025 -0.8319,11.83475 -0.0736,14.44863 4.42595,15.57795 1.61224,0.40465 4.12579,2.17317 5.61085,3.93805 2.95437,3.51108 10.99078,7.84125 14.53245,7.84125 1.38055,0 2.21976,1.51947 4.02151,4.27142 l 0.43058,4.4608 -3.02324,0.18939 c -4.71213,0.29518 -6.6215,0.42191 -6.6215,1.4637 0,0.81722 -2.40388,2.0715 -5.47145,2.8577 -3.47076,0.88953 -6.95479,2.84552 -9.4792,5.29719 -2.1953,2.13204 -4.00775,3.40574 -4.00775,2.82285 0,-1.43387 -6.19331,-3.51985 -10.48985,-3.51985 -5.27781,0 -8.1079,2.67394 -10.10651,9.5489 -0.98544,3.3898 -2.21708,5.87246 -2.75315,5.54116 -1.0618,-0.65624 -5.80583,4.99809 -10.5247,12.54601 -1.64286,2.62777 -4.93495,6.84416 -7.3185,9.37465 -6.75726,7.17385 -8.47065,11.91825 -7.07455,19.62056 0.63613,3.50941 0.92248,7.00231 0.6273,7.77154 -0.56815,1.48058 -3.74495,1.98325 -3.51985,0.5576 0.52078,-3.29823 -0.24064,-3.86854 -2.47435,-1.84705 -3.68182,3.33199 -7.02307,9.71066 -15.99615,30.56345 -8.11482,18.85824 -8.27471,19.46802 -6.65635,22.79191 3.12064,6.40936 7.10587,9.5489 12.1278,9.5489 0.8124,0 3.61118,-5.03483 6.23815,-11.18685 4.14729,-9.71272 5.46467,-11.65624 9.8974,-14.84611 5.28076,-3.80011 16.56099,-16.81448 19.55085,-22.54795 0.93746,-1.79771 1.70431,-4.62682 1.70765,-6.273 0.004,-1.81923 3.71758,-8.90529 9.4792,-18.08714 5.21357,-8.30846 9.47921,-15.4063 9.47921,-15.75221 0,-0.34591 1.20064,-1.88859 2.6486,-3.45015 l 2.61375,-2.8577 0.80155,7.07455 c 0.932,8.40589 2.78625,16.60835 4.182,18.40081 0.55264,0.7097 4.00328,1.63092 7.667,2.05615 4.88296,0.56672 6.97529,1.33961 7.8064,2.89255 0.62359,1.16516 1.85469,2.12584 2.75315,2.12584 1.91062,0 1.93483,0.40841 0.1045,5.47145 l -1.394,3.8335 -11.08231,0.0697 c -10.61275,0.0904 -11.08959,0.2113 -11.4308,2.61375 -0.19599,1.38006 -1.00288,2.5092 -1.77735,2.5092 -1.89314,0 -3.71027,6.306 -5.33205,18.3311 l -1.35915,9.93225 3.24105,2.33495 c 1.77918,1.27167 4.28198,3.37509 5.54115,4.66991 1.25916,1.29481 3.39439,2.70324 4.77445,3.1365 3.48778,1.09496 3.14478,2.23285 -1.08035,3.485 -4.62895,1.37183 -8.26838,6.80548 -9.23525,13.83545 -0.61892,4.50009 -1.19623,5.53857 -3.17135,5.81995 -2.15487,0.30697 -2.47946,1.24478 -3.10165,8.7125 -0.38327,4.6002 -1.08672,20.2827 -1.56825,34.85001 -0.70315,21.27165 -0.59221,26.486 0.5576,26.486 1.08026,0 1.25784,1.57396 0.73185,6.4124 -1.27673,11.7443 -0.56769,35.08906 1.7425,57.67676 1.25663,12.28659 2.52534,28.73317 2.82285,36.52281 0.49788,13.03614 0.7465,14.27756 2.9971,15.7522 1.34482,0.88117 3.4339,1.86776 4.63505,2.19555 2.20117,0.6007 10.60696,-10e-4 14.0794,-1.01065 1.98504,-0.57687 3.80556,-6.29622 2.61375,-8.2246 -0.38832,-0.62833 -0.19651,-1.15005 0.45305,-1.15005 0.75624,0 1.1849,-4.21163 1.1849,-11.7096 0,-7.06293 0.44255,-11.7096 1.1152,-11.7096 0.61336,0 1.14598,0.6273 1.18491,1.394 0.0389,0.7667 0.64631,0.1394 1.3243,-1.394 0.80529,-1.82136 1.33967,-17.09435 1.56825,-44.05041 0.19243,-22.69433 0.83146,-43.52069 1.42885,-46.28081 0.59739,-2.76012 1.12339,-15.32394 1.15005,-27.91485 0.0457,-21.54502 -0.0965,-22.98105 -2.19555,-24.77836 -4.25781,-3.64564 -2.6825,-4.21535 11.152,-4.00775 10.07591,0.15121 13.3824,0.55542 13.3824,1.63795 0,0.79078 -0.87822,1.90915 -1.9516,2.5092 -1.76009,0.98395 -1.96956,3.81094 -2.3001,28.57701 -0.26821,20.09548 -0.0323,27.89216 0.94095,29.0649 1.03046,1.24164 1.03164,4.04324 -0.0348,12.4763 -0.92015,7.27607 -1.20972,20.67066 -0.87125,40.42601 0.48063,28.05187 1.07225,34.17418 3.13651,32.89841 1.40602,-0.86898 2.29043,6.66806 2.40465,20.3524 0.0697,8.34956 1.87304,12.29725 2.69828,12.34788 5.68396,0.34899 19.03293,-0.11086 19.71027,-0.77768 0.4678,-0.46051 1.11668,-6.57631 1.4637,-13.5915 0.34702,-7.01518 1.037,-13.75878 1.5334,-14.9855 0.85846,-2.12152 2.2122,-13.6059 4.6699,-39.58961 0.60917,-6.44028 1.15897,-20.11542 1.21975,-30.38921 0.0608,-10.27378 0.53829,-18.6796 1.0455,-18.6796 1.04518,0 0.99137,-39.11933 -0.0697,-56.87521 -0.66022,-11.04816 -0.83874,-11.72187 -3.2062,-12.0581 -1.39526,-0.19816 -2.54227,-1.18832 -2.61375,-2.2304 -0.0707,-1.03072 -0.23542,-2.38374 -0.3485,-2.9971 -1.79121,-9.71575 -4.06782,-13.34019 -9.09585,-14.60215 -2.22238,-0.55778 -2.52058,-1.03381 -1.49855,-2.26525 0.70495,-0.84942 1.96465,-1.5334 2.788,-1.5334 0.82336,0 2.00225,-0.91355 2.61375,-2.05615 0.6115,-1.14261 2.61768,-2.72155 4.4608,-3.485 4.16083,-1.72347 4.98341,-4.17952 4.00775,-11.98841 -1.72076,-13.77254 -3.54227,-20.38725 -5.576,-20.38725 -0.85374,0 -1.72075,-1.12914 -1.91675,-2.5092 -0.33666,-2.37046 -0.90349,-2.50957 -10.3853,-2.7183 -5.52024,-0.12154 -10.54686,-0.24702 -11.18685,-0.2788 -0.63998,-0.0318 -1.71252,-2.06797 -2.3698,-4.5305 -1.11969,-4.19489 -1.01323,-4.52753 1.35915,-5.12295 1.39266,-0.34954 2.75958,-1.61324 3.0668,-2.78799 0.45927,-1.7563 1.57682,-2.12585 6.30785,-2.12585 9.67303,0 9.63704,0.059 13.97485,-20.97971 0.7339,-3.55946 0.84937,-3.6264 2.89255,-1.77735 1.16864,1.05761 2.12585,2.29378 2.12585,2.75315 0,0.45937 1.82374,4.01854 4.0426,7.91096 2.21886,3.89242 5.52,9.83467 7.35335,13.20815 1.83336,3.37347 3.82558,6.75343 4.42595,7.49274 0.60037,0.73931 1.29271,3.6695 1.5334,6.51695 0.34664,4.10097 1.64158,6.76538 6.1336,12.8248 3.11899,4.20727 8.28877,10.05929 11.50051,12.99905 4.91649,4.50017 6.48693,7.00666 10.0368,15.92646 2.31898,5.82692 4.58895,10.98298 5.0184,11.4308 0.42946,0.44782 2.62961,0.28221 4.91385,-0.3485 3.17945,-0.87789 4.6737,-2.1665 6.37755,-5.5063 1.2241,-2.39946 2.2304,-5.29754 2.2304,-6.44725 0,-1.14973 -2.00736,-7.03897 -4.4608,-13.06876 -2.45344,-6.02978 -4.4608,-11.63389 -4.4608,-12.4763 0,-2.46964 -7.99016,-19.6349 -10.42015,-22.3737 -2.91549,-3.286 -3.8487,-3.16523 -4.28655,0.5576 l -0.3485,3.0668 -1.42885,-2.5092 c -1.07696,-1.8965 -1.14759,-3.56291 -0.2788,-6.6912 2.32334,-8.36574 0.50105,-14.75043 -6.4821,-22.82675 -1.73837,-2.01047 -5.34095,-7.38223 -8.01551,-11.9187 -2.67455,-4.53649 -5.72173,-8.44076 -6.7609,-8.71251 -1.13753,-0.29747 -2.43382,-2.58606 -3.2759,-5.71541 -2.59684,-9.65048 -8.2192,-12.92553 -16.48405,-9.6186 -4.42566,1.77081 -4.61756,1.76245 -7.1094,-0.6273 -2.95673,-2.83558 -9.45148,-7.34312 -12.31582,-7.37903 -1.19996,-0.0151 -1.38345,-0.70447 -2.51973,-1.6971 -1.47135,-1.28531 -1.31326,-2.04101 -6.56235,-2.04101 l -3.34285,0 -0.0816,-4.62589 c 1.36125,-2.90729 1.48715,-4.06527 3.62829,-4.09258 4.0513,-0.0516 14.53116,-4.44322 16.59388,-7.59134 0.98608,-1.50495 2.82356,-2.6486 4.2517,-2.6486 3.61814,0 5.06902,-2.33194 5.7851,-9.2701 0.84625,-8.19935 -0.44875,-16.06155 -3.10165,-18.71445 -1.45767,-1.45767 -2.37058,-4.30173 -2.75315,-8.5731 -0.80511,-8.98929 -2.20433,-12.72345 -6.3427,-16.72801 -6.32013,-6.11577 -15.48796,-8.99014 -24.42986,-8.8519 z"
       id="path3153"
       inkscape:connector-curvature="0"
       sodipodi:nodetypes="csssssssccsssssssssssssssssssscsscccsssscccsscccsssssssssssssssssscsssssssssssssscsssssssscsssssssssscsscsssssssssssssssssscccssssssssssccssssssssc"
       clip-path="url(#clipPath3776)"
       transform="translate(0,-1.2577705)"
       inkscape:export-filename="/home/jorhabib/Software/codyco/src/simulink/controllers/img/wholeBodyStates.png"
       inkscape:export-xdpi="100"
       inkscape:export-ydpi="100" />
  </g>
  <g
     inkscape:groupmode="layer"
     id="layer2"
     inkscape:label="states"
     style="display:inline"
     transform="translate(-0.9606421,0.07873535)">
    <path
       sodipodi:open="true"
       sodipodi:end="10.126038"
       sodipodi:start="3.8453139"
       transform="matrix(1.1574075,0,0,1.1574075,87.132181,-80.822285)"
       d="M 66.749614,107.35599 C 90.871483,78.932838 133.46764,75.445958 161.8908,99.567828 c 28.42315,24.121872 31.91003,66.718032 7.78816,95.141182 -24.12187,28.42315 -66.71803,31.91003 -95.141182,7.78816 -28.373701,-24.0799 -31.905499,-66.5815 -7.895505,-95.01438"
       sodipodi:ry="67.5"
       sodipodi:rx="67.5"
       sodipodi:cy="151.0325"
       sodipodi:cx="118.21429"
       id="path5870-8"
       style="fill:#000000;fill-opacity:1;stroke:#000000;stroke-width:9.17999935;stroke-miterlimit:4.9000001;stroke-opacity:1;stroke-dasharray:none;stroke-dashoffset:0;display:inline"
       sodipodi:type="arc" />
    <g
       id="g3867"
       transform="translate(5.0421398,-8.1168178)">
      <path
         style="font-style:normal;font-variant:normal;font-weight:normal;font-stretch:normal;letter-spacing:normal;word-spacing:normal;text-anchor:start;fill:#ffcf0f;fill-opacity:1;stroke:#000000;stroke-width:0;stroke-linecap:butt;stroke-linejoin:miter;stroke-miterlimit:10.43299961;stroke-opacity:1;stroke-dasharray:none;stroke-dashoffset:0"
         inkscape:connector-curvature="0"
         d="m 243.87502,34.974022 0,-0.421147 -0.0351,-0.456244 -0.0702,-0.421148 -0.0702,-0.456244 -0.10528,-0.421147 -0.1053,-0.421148 -0.14037,-0.421148 -0.17548,-0.421147 -0.17548,-0.386053 -0.21058,-0.386052 -0.21057,-0.386052 -0.24567,-0.386052 -0.24567,-0.386053 -0.28076,-0.350957 -0.28077,-0.350956 -0.28077,-0.315861 -0.31586,-0.31586 -0.35095,-0.315862 -0.35096,-0.280764 -0.35096,-0.280766 -0.38605,-0.24567 -0.38605,-0.245668 -0.38605,-0.210574 -0.42115,-0.175479 -0.42115,-0.175478 -0.45624,-0.175479 -0.42115,-0.140382 -0.45624,-0.105286 -0.45625,-0.07019 -0.49133,-0.07019 -0.49134,-0.0351 -0.49134,-0.03509 c -5.89608,0 -9.40564,4.878296 -9.40564,9.265252 0,4.737913 4.00091,9.265252 9.26525,9.265252 5.89607,0 9.40564,-4.878295 9.40564,-9.265252 z"
         id="path6464" />
      <path
         style="font-style:normal;font-variant:normal;font-weight:normal;font-stretch:normal;letter-spacing:normal;word-spacing:normal;text-anchor:start;fill:#ffcf0f;fill-opacity:1;stroke:#000000;stroke-width:0;stroke-linecap:butt;stroke-linejoin:miter;stroke-miterlimit:10.43299961;stroke-opacity:1;stroke-dasharray:none;stroke-dashoffset:0"
         inkscape:connector-curvature="0"
         d="m 259.56391,55.050642 0,-0.07928 0,-0.07928 0,-0.07928 -0.0397,-0.07928 0,-0.07928 0,-0.07928 -0.0397,-0.07928 -0.0397,-0.07928 0,-0.07928 -0.0397,-0.07928 -0.0397,-0.07928 -0.0397,-0.118922 -0.0397,-0.07928 -0.0792,-0.07928 -0.0397,-0.07928 -0.0397,-0.03964 -0.0792,-0.07928 -0.0792,-0.07928 -0.0397,-0.07928 -0.0793,-0.03964 -0.0792,-0.07928 -0.0792,-0.03964 -0.11891,-0.07928 -0.0792,-0.03964 -0.0792,-0.03964 -0.11893,-0.03964 -0.11892,-0.03964 -0.0792,0 -0.11892,-0.03964 -0.11892,0 -0.15857,-0.03964 -0.0397,0 -0.0792,0 c -2.18025,0 -10.02917,7.888554 -13.359,13.636495 C 239.82276,56.041628 232.13242,52.90999 225.8295,52.90999 v 4.320867 c 12.80404,0 15.5789,15.975311 15.5789,17.323105 0,1.268511 -10.82198,44.477168 -11.45623,45.309618 -2.97308,5.51011 -13.99327,18.11593 -25.09275,18.11593 h 0 c -11.813,0 -12.60582,-15.22213 -12.60582,-18.55198 0,-9.47419 5.66866,-30.999229 9.07778,-39.284191 C 207.43609,65.51582 217.7031,57.230857 225.8295,57.230857 V 52.90999 c -23.30889,0 -47.56916,29.215398 -47.56916,57.83617 0,19.30515 11.6148,31.59386 26.00448,31.59386 8.52281,0 16.21316,-4.71728 23.34853,-11.85266 -1.78385,6.89754 -8.28496,33.57591 -8.91922,35.3994 -1.546,5.51009 -3.17128,6.30291 -14.19147,6.50112 -2.61631,0 -4.59835,0 -4.59835,3.96409 0,0.15857 0,2.14062 2.6163,2.14062 6.30292,0 13.20045,-0.59462 19.7412,-0.59462 6.69933,0 13.83471,0.59462 20.33582,0.59462 0.99103,0 3.52805,0 3.52805,-3.9641 0,-2.14061 -1.90276,-2.14061 -5.07404,-2.14061 -9.55348,0 -9.55348,-1.42708 -9.55348,-3.17128 0,-1.42708 0.43605,-2.61631 0.83246,-4.32086 z"
         id="path6466" />
    </g>
    <path
       sodipodi:open="true"
       sodipodi:end="10.126038"
       sodipodi:start="3.8453139"
       transform="matrix(1.1574075,0,0,1.1574075,-43.685835,61.187532)"
       d="M 66.749614,107.35599 C 90.871483,78.932838 133.46764,75.445958 161.8908,99.567828 c 28.42315,24.121872 31.91003,66.718032 7.78816,95.141182 -24.12187,28.42315 -66.71803,31.91003 -95.141182,7.78816 -28.373701,-24.0799 -31.905499,-66.5815 -7.895505,-95.01438"
       sodipodi:ry="67.5"
       sodipodi:rx="67.5"
       sodipodi:cy="151.0325"
       sodipodi:cx="118.21429"
       id="path5870"
       style="fill:#000000;fill-opacity:1;stroke:#000000;stroke-width:9.18031216;stroke-miterlimit:4.9000001;stroke-opacity:1;stroke-dasharray:none;stroke-dashoffset:0;display:inline"
       sodipodi:type="arc" />
    <g
       style="fill:#ffcf0f;fill-opacity:1;display:inline"
       id="g6490"
       transform="matrix(12.601336,0,0,12.601336,-1060.9938,-2026.5005)">
      <g
         id="g6492"
         transform="matrix(0.31282161,0,0,-0.31282161,-54.743783,308.54224)"
         xml:space="preserve"
         stroke-miterlimit="10.433"
         font-style="normal"
         font-variant="normal"
         font-weight="normal"
         font-stretch="normal"
         font-size-adjust="none"
         letter-spacing="normal"
         word-spacing="normal"
         style="font-style:normal;font-variant:normal;font-weight:normal;font-stretch:normal;letter-spacing:normal;word-spacing:normal;text-anchor:start;fill:#ffcf0f;fill-opacity:1;stroke:#000000;stroke-linecap:butt;stroke-linejoin:miter;stroke-miterlimit:10.43299961;stroke-opacity:1;stroke-dasharray:none;stroke-dashoffset:0"><path
           d="m 478.04,427.67 -0.01,0.02 0,0.02 0,0.02 0,0.02 -0.01,0.02 0,0.02 -0.01,0.02 0,0.02 -0.01,0.02 -0.01,0.02 -0.01,0.02 -0.01,0.03 -0.01,0.02 -0.01,0.02 -0.02,0.02 -0.01,0.01 -0.02,0.02 -0.01,0.02 -0.02,0.02 -0.02,0.01 -0.02,0.02 -0.02,0.01 -0.02,0.02 -0.03,0.01 -0.02,0.01 -0.03,0.01 -0.02,0.01 -0.03,0 -0.03,0.01 -0.03,0 -0.03,0.01 -0.02,0 -0.01,0 c -0.55,0 -2.54,-1.99 -3.38,-3.44 -1.11,2.69 -3.05,3.48 -4.64,3.48 v -1.09 c 3.23,0 3.94,-4.03 3.94,-4.37 0,-0.32 -2.74,-11.22 -2.89,-11.43 -0.75,-1.39 -3.53,-4.57 -6.33,-4.57 h 0 c -2.99,0 -3.19,3.84 -3.19,4.68 0,2.39 1.44,7.82 2.3,9.91 1.53,3.69 4.12,5.78 6.17,5.78 v 1.09 c -5.88,0 -12,-7.37 -12,-14.59 0,-4.87 2.94,-7.97 6.56,-7.97 2.16,0 4.1,1.19 5.89,2.99 -0.45,-1.74 -2.09,-8.47 -2.25,-8.93 -0.39,-1.39 -0.79,-1.59 -3.58,-1.64 -0.65,0 -1.15,0 -1.15,-1 0,-0.04 0,-0.54 0.65,-0.54 1.6,0 3.33,0.15 4.99,0.15 1.69,0 3.48,-0.15 5.12,-0.15 0.25,0 0.89,0 0.89,1 0,0.54 -0.48,0.54 -1.28,0.54 -2.4,0 -2.4,0.36 -2.4,0.8 0,0.36 0.11,0.66 0.2,1.09 z"
           id="path6494"
           inkscape:connector-curvature="0"
           style="fill:#ffcf0f;fill-opacity:1;stroke-width:0" /></g>    </g>
    <path
       sodipodi:open="true"
       sodipodi:end="10.126038"
       sodipodi:start="3.8453139"
       transform="matrix(1.158746,0,0,1.158746,220.45229,62.248798)"
       d="M 66.749614,107.35599 C 90.871483,78.932838 133.46764,75.445958 161.8908,99.567828 c 28.42315,24.121872 31.91003,66.718032 7.78816,95.141182 -24.12187,28.42315 -66.71803,31.91003 -95.141182,7.78816 -28.373701,-24.0799 -31.905499,-66.5815 -7.895505,-95.01438"
       sodipodi:ry="67.5"
       sodipodi:rx="67.5"
       sodipodi:cy="151.0325"
       sodipodi:cx="118.21429"
       id="path5870-2-0"
       style="fill:#000000;fill-opacity:1;stroke:#000000;stroke-width:9.18031216;stroke-miterlimit:4.9000001;stroke-opacity:1;stroke-dasharray:none;stroke-dashoffset:0;display:inline"
       sodipodi:type="arc" />
    <g
       style="fill:#ffcf0f;fill-opacity:1;display:inline"
       id="g6524"
       transform="matrix(17.973022,0,0,17.973022,-1294.0106,-2959.3856)">
      <g
         word-spacing="normal"
         letter-spacing="normal"
         font-size-adjust="none"
         font-stretch="normal"
         font-weight="normal"
         font-variant="normal"
         font-style="normal"
         stroke-miterlimit="10.433"
         xml:space="preserve"
         transform="matrix(0.31282161,0,0,-0.31282161,-54.743783,308.54224)"
         id="g6526"
         style="font-style:normal;font-variant:normal;font-weight:normal;font-stretch:normal;letter-spacing:normal;word-spacing:normal;text-anchor:start;fill:#ffcf0f;fill-opacity:1;stroke:#000000;stroke-linecap:butt;stroke-linejoin:miter;stroke-miterlimit:10.43299961;stroke-opacity:1;stroke-dasharray:none;stroke-dashoffset:0"><path
           id="path6528"
           d="m 470.16,424.78 h 8.38 c 0.65,0 2.43,0 2.43,1.7 0,1.19 -1.04,1.19 -1.98,1.19 h -13.95 c -1,0 -2.94,0 -5.13,-2.35 -1.66,-1.78 -3.05,-4.17 -3.05,-4.48 0,-0.05 0,-0.48 0.6,-0.48 0.4,0 0.5,0.18 0.79,0.59 2.46,3.83 5.29,3.83 6.33,3.83 h 4.14 l -4.89,-15.99 c -0.19,-0.59 -0.48,-1.64 -0.48,-1.84 0,-0.55 0.34,-1.34 1.44,-1.34 1.64,0 1.89,1.39 2.04,2.14 z"
           inkscape:connector-curvature="0"
           style="fill:#ffcf0f;fill-opacity:1;stroke-width:0" /></g>    </g>
  </g>
</svg>
